999
dxfrw 0.5.11
0
SECTION
2
HEADER
9
$ACADVER
1
AC1021
9
$HANDSEED
5
20000
9
$DWGCODEPAGE
3
ANSI_1250
9
$INSBASE
10
0
20
0
30
0
9
$EXTMIN
10
-43.125
20
-40
30
0
9
$EXTMAX
10
346
20
250
30
0
9
$LIMMIN
10
0
20
0
9
$LIMMAX
10
420
20
297
9
$ORTHOMODE
70
0
9
$LTSCALE
40
1
9
$TEXTSTYLE
7
STANDARD
9
$CLAYER
8
text
9
$DIMASZ
40
2.5
9
$DIMLFAC
40
1
9
$DIMSCALE
40
1
9
$DIMEXO
40
0.625
9
$DIMEXE
40
1.25
9
$DIMTXT
40
2.5
9
$DIMTSZ
40
0
9
$DIMAUNIT
70
0
9
$DIMADEC
70
2
9
$DIMLUNIT
70
2
9
$DIMSTYLE
2
STANDARD
9
$DIMGAP
40
0.625
9
$DIMTIH
70
0
9
$LUNITS
70
2
9
$LUPREC
70
2
9
$AUNITS
70
0
9
$AUPREC
70
2
9
$SPLINESEGS
70
8
9
$GRIDMODE
70
1
9
$SNAPSTYLE
70
0
9
$GRIDUNIT
10
0
20
0
9
$PINSBASE
10
44.9333518647
20
73.2277379524
30
0
9
$PLIMMIN
10
0
20
0
9
$PLIMMAX
10
210
20
297
9
$INSUNITS
70
4
9
$PSVPSCALE
40
0.833333333333
0
ENDSEC
0
SECTION
2
CLASSES
0
ENDSEC
0
SECTION
2
TABLES
0
TABLE
2
VPORT
5
8
330
0
100
AcDbSymbolTable
70
1
0
VPORT
5
31
330
2
100
AcDbSymbolTableRecord
100
AcDbViewportTableRecord
2
*ACTIVE
70
0
10
0
20
0
11
1
21
1
12
183.295977011
22
114.862787356
13
0
23
0
14
10
24
10
15
10
25
10
16
0
26
0
36
1
17
0
27
0
37
0
40
263.639367816
41
1.99846860643
42
50
43
0
44
0
50
0
51
0
71
0
72
100
73
1
74
3
75
0
76
1
77
0
78
0
281
0
65
1
110
0
120
0
130
0
111
1
121
0
131
0
112
0
122
1
132
0
79
0
146
0
348
10020
60
7
61
5
292
1
282
1
141
0
142
0
63
250
421
3358443
0
ENDTAB
0
TABLE
2
LTYPE
5
5
330
0
100
AcDbSymbolTable
70
4
0
LTYPE
5
14
330
5
100
AcDbSymbolTableRecord
100
AcDbLinetypeTableRecord
2
ByBlock
70
0
3

72
65
73
0
40
0
0
LTYPE
5
15
330
5
100
AcDbSymbolTableRecord
100
AcDbLinetypeTableRecord
2
ByLayer
70
0
3

72
65
73
0
40
0
0
LTYPE
5
16
330
5
100
AcDbSymbolTableRecord
100
AcDbLinetypeTableRecord
2
Continuous
70
0
3
Solid line
72
65
73
0
40
0
0
LTYPE
5
32
330
5
100
AcDbSymbolTableRecord
100
AcDbLinetypeTableRecord
2
DOT
70
0
3
Dot . . . . . . . . . . . . . . . . . . . . . .
72
65
73
2
40
6.35
49
0
74
0
49
-6.35
74
0
0
LTYPE
5
33
330
5
100
AcDbSymbolTableRecord
100
AcDbLinetypeTableRecord
2
DOT2
70
0
3
Dot (.5x) .....................................
72
65
73
2
40
3.175
49
0
74
0
49
-3.175
74
0
0
LTYPE
5
34
330
5
100
AcDbSymbolTableRecord
100
AcDbLinetypeTableRecord
2
DOTX2
70
0
3
Dot (2x) .  .  .  .  .  .  .  .  .  .  .  .  .
72
65
73
2
40
12.7
49
0
74
0
49
-12.7
74
0
0
LTYPE
5
35
330
5
100
AcDbSymbolTableRecord
100
AcDbLinetypeTableRecord
2
DASHED
70
0
3
Dot . . . . . . . . . . . . . . . . . . . . . .
72
65
73
2
40
19.05
49
12.7
74
0
49
-6.35
74
0
0
LTYPE
5
36
330
5
100
AcDbSymbolTableRecord
100
AcDbLinetypeTableRecord
2
DASHED2
70
0
3
Dashed (.5x) _ _ _ _ _ _ _ _ _ _ _ _ _ _ _ _ _
72
65
73
2
40
9.525
49
6.35
74
0
49
-3.175
74
0
0
LTYPE
5
37
330
5
100
AcDbSymbolTableRecord
100
AcDbLinetypeTableRecord
2
DASHEDX2
70
0
3
Dashed (2x) ____  ____  ____  ____  ____  ___
72
65
73
2
40
38.1
49
25.4
74
0
49
-12.7
74
0
0
LTYPE
5
38
330
5
100
AcDbSymbolTableRecord
100
AcDbLinetypeTableRecord
2
DASHDOT
70
0
3
Dash dot __ . __ . __ . __ . __ . __ . __ . __
72
65
73
4
40
25.4
49
12.7
74
0
49
-6.35
74
0
49
0
74
0
49
-6.35
74
0
0
LTYPE
5
39
330
5
100
AcDbSymbolTableRecord
100
AcDbLinetypeTableRecord
2
DASHDOT2
70
0
3
Dash dot (.5x) _._._._._._._._._._._._._._._.
72
65
73
4
40
12.7
49
6.35
74
0
49
-3.175
74
0
49
0
74
0
49
-3.175
74
0
0
LTYPE
5
3A
330
5
100
AcDbSymbolTableRecord
100
AcDbLinetypeTableRecord
2
DASHDOTX2
70
0
3
Dash dot (2x) ____  .  ____  .  ____  .  ___
72
65
73
4
40
50.8
49
25.4
74
0
49
-12.7
74
0
49
0
74
0
49
-12.7
74
0
0
LTYPE
5
3B
330
5
100
AcDbSymbolTableRecord
100
AcDbLinetypeTableRecord
2
DIVIDE
70
0
3
Divide ____ . . ____ . . ____ . . ____ . . ____
72
65
73
6
40
31.75
49
12.7
74
0
49
-6.35
74
0
49
0
74
0
49
-6.35
74
0
49
0
74
0
49
-6.35
74
0
0
LTYPE
5
3C
330
5
100
AcDbSymbolTableRecord
100
AcDbLinetypeTableRecord
2
DIVIDE2
70
0
3
Divide (.5x) __..__..__..__..__..__..__..__.._
72
65
73
6
40
15.875
49
6.35
74
0
49
-3.175
74
0
49
0
74
0
49
-3.175
74
0
49
0
74
0
49
-3.175
74
0
0
LTYPE
5
3D
330
5
100
AcDbSymbolTableRecord
100
AcDbLinetypeTableRecord
2
DIVIDEX2
70
0
3
Divide (2x) ________  .  .  ________  .  .  _
72
65
73
6
40
63.5
49
25.4
74
0
49
-12.7
74
0
49
0
74
0
49
-12.7
74
0
49
0
74
0
49
-12.7
74
0
0
LTYPE
5
3E
330
5
100
AcDbSymbolTableRecord
100
AcDbLinetypeTableRecord
2
BORDER
70
0
3
Border __ __ . __ __ . __ __ . __ __ . __ __ .
72
65
73
6
40
44.45
49
12.7
74
0
49
-6.35
74
0
49
12.7
74
0
49
-6.35
74
0
49
0
74
0
49
-6.35
74
0
0
LTYPE
5
3F
330
5
100
AcDbSymbolTableRecord
100
AcDbLinetypeTableRecord
2
BORDER2
70
0
3
Border (.5x) __.__.__.__.__.__.__.__.__.__.__.
72
65
73
6
40
22.225
49
6.35
74
0
49
-3.175
74
0
49
6.35
74
0
49
-3.175
74
0
49
0
74
0
49
-3.175
74
0
0
LTYPE
5
40
330
5
100
AcDbSymbolTableRecord
100
AcDbLinetypeTableRecord
2
BORDERX2
70
0
3
Border (2x) ____  ____  .  ____  ____  .  ___
72
65
73
6
40
88.9
49
25.4
74
0
49
-12.7
74
0
49
25.4
74
0
49
-12.7
74
0
49
0
74
0
49
-12.7
74
0
0
LTYPE
5
41
330
5
100
AcDbSymbolTableRecord
100
AcDbLinetypeTableRecord
2
CENTER
70
0
3
Center ____ _ ____ _ ____ _ ____ _ ____ _ ____
72
65
73
4
40
50.8
49
31.75
74
0
49
-6.35
74
0
49
6.35
74
0
49
-6.35
74
0
0
LTYPE
5
42
330
5
100
AcDbSymbolTableRecord
100
AcDbLinetypeTableRecord
2
CENTER2
70
0
3
Center (.5x) ___ _ ___ _ ___ _ ___ _ ___ _ ___
72
65
73
4
40
28.575
49
19.05
74
0
49
-3.175
74
0
49
3.175
74
0
49
-3.175
74
0
0
LTYPE
5
43
330
5
100
AcDbSymbolTableRecord
100
AcDbLinetypeTableRecord
2
CENTERX2
70
0
3
Center (2x) ________  __  ________  __  _____
72
65
73
4
40
101.6
49
63.5
74
0
49
-12.7
74
0
49
12.7
74
0
49
-12.7
74
0
0
ENDTAB
0
TABLE
2
LAYER
5
2
330
0
100
AcDbSymbolTable
70
1
0
LAYER
5
10
330
2
100
AcDbSymbolTableRecord
100
AcDbLayerTableRecord
2
0
70
1
62
7
6
CONTINUOUS
370
0
390
F
0
LAYER
5
44
330
2
100
AcDbSymbolTableRecord
100
AcDbLayerTableRecord
2
box
70
1
62
7
6
CONTINUOUS
370
18
390
F
0
LAYER
5
45
330
2
100
AcDbSymbolTableRecord
100
AcDbLayerTableRecord
2
dashdot
70
0
62
3
6
DASHDOT
370
25
390
F
0
LAYER
5
46
330
2
100
AcDbSymbolTableRecord
100
AcDbLayerTableRecord
2
dimension
70
0
62
3
6
CONTINUOUS
370
25
390
F
0
LAYER
5
47
330
2
100
AcDbSymbolTableRecord
100
AcDbLayerTableRecord
2
pcb
70
0
62
7
6
CONTINUOUS
370
0
390
F
0
LAYER
5
48
330
2
100
AcDbSymbolTableRecord
100
AcDbLayerTableRecord
2
plate
70
0
62
4
6
CONTINUOUS
370
50
390
F
0
LAYER
5
49
330
2
100
AcDbSymbolTableRecord
100
AcDbLayerTableRecord
2
ssr
70
0
62
5
6
CONTINUOUS
370
50
390
F
0
LAYER
5
4A
330
2
100
AcDbSymbolTableRecord
100
AcDbLayerTableRecord
2
text
70
0
62
7
6
CONTINUOUS
370
50
390
F
0
ENDTAB
0
TABLE
2
STYLE
5
3
330
0
100
AcDbSymbolTable
70
3
0
STYLE
5
4B
330
2
100
AcDbSymbolTableRecord
100
AcDbTextStyleTableRecord
2
standard
70
0
40
0
41
1
50
0
71
0
42
1
3
standard
4

0
STYLE
5
4C
330
2
100
AcDbSymbolTableRecord
100
AcDbTextStyleTableRecord
2
iso
70
0
40
0
41
1
50
0
71
0
42
1
3
iso
4

0
ENDTAB
0
TABLE
2
VIEW
5
6
330
0
100
AcDbSymbolTable
70
0
0
ENDTAB
0
TABLE
2
UCS
5
7
330
0
100
AcDbSymbolTable
70
0
0
ENDTAB
0
TABLE
2
APPID
5
9
330
0
100
AcDbSymbolTable
70
1
0
APPID
5
12
330
9
100
AcDbSymbolTableRecord
100
AcDbRegAppTableRecord
2
ACAD
70
0
0
ENDTAB
0
TABLE
2
DIMSTYLE
5
A
330
0
100
AcDbSymbolTable
70
1
100
AcDbDimStyleTable
71
1
0
DIMSTYLE
105
4D
330
A
100
AcDbSymbolTableRecord
100
AcDbDimStyleTableRecord
2
Standard
70
0
40
1
41
2.5
42
0.625
43
0.38
44
1.25
45
0
46
0
47
0
48
0
140
2.5
141
0.09
142
0
143
25.4
144
1
145
0
146
1
147
0.625
148
0
71
0
72
0
73
0
74
1
75
0
76
0
77
0
78
0
79
0
170
0
171
2
172
0
173
0
174
0
175
0
176
0
177
0
178
0
179
0
271
4
272
4
273
2
274
2
275
0
276
0
277
2
278
46
279
0
280
0
281
0
282
0
283
1
284
0
285
0
286
0
288
0
289
3
340
Standard
341

371
-2
372
-2
0
ENDTAB
0
TABLE
2
BLOCK_RECORD
5
1
330
0
100
AcDbSymbolTable
70
2
0
BLOCK_RECORD
5
1F
330
1
100
AcDbSymbolTableRecord
100
AcDbBlockTableRecord
2
*Model_Space
70
0
280
1
281
0
0
BLOCK_RECORD
5
1E
330
1
100
AcDbSymbolTableRecord
100
AcDbBlockTableRecord
2
*Paper_Space
70
0
280
1
281
0
0
BLOCK_RECORD
5
4E
330
1
100
AcDbSymbolTableRecord
100
AcDbBlockTableRecord
2
*D47
70
0
280
1
281
0
0
BLOCK_RECORD
5
51
330
1
100
AcDbSymbolTableRecord
100
AcDbBlockTableRecord
2
*D20
70
0
280
1
281
0
0
BLOCK_RECORD
5
54
330
1
100
AcDbSymbolTableRecord
100
AcDbBlockTableRecord
2
*D14
70
0
280
1
281
0
0
BLOCK_RECORD
5
57
330
1
100
AcDbSymbolTableRecord
100
AcDbBlockTableRecord
2
*D4
70
0
280
1
281
0
0
BLOCK_RECORD
5
5A
330
1
100
AcDbSymbolTableRecord
100
AcDbBlockTableRecord
2
*D35
70
0
280
1
281
0
0
BLOCK_RECORD
5
5D
330
1
100
AcDbSymbolTableRecord
100
AcDbBlockTableRecord
2
*D49
70
0
280
1
281
0
0
BLOCK_RECORD
5
60
330
1
100
AcDbSymbolTableRecord
100
AcDbBlockTableRecord
2
*D11
70
0
280
1
281
0
0
BLOCK_RECORD
5
63
330
1
100
AcDbSymbolTableRecord
100
AcDbBlockTableRecord
2
*D24
70
0
280
1
281
0
0
BLOCK_RECORD
5
66
330
1
100
AcDbSymbolTableRecord
100
AcDbBlockTableRecord
2
*D7
70
0
280
1
281
0
0
BLOCK_RECORD
5
69
330
1
100
AcDbSymbolTableRecord
100
AcDbBlockTableRecord
2
*D50
70
0
280
1
281
0
0
BLOCK_RECORD
5
6C
330
1
100
AcDbSymbolTableRecord
100
AcDbBlockTableRecord
2
*D5
70
0
280
1
281
0
0
BLOCK_RECORD
5
6F
330
1
100
AcDbSymbolTableRecord
100
AcDbBlockTableRecord
2
*D28
70
0
280
1
281
0
0
BLOCK_RECORD
5
72
330
1
100
AcDbSymbolTableRecord
100
AcDbBlockTableRecord
2
*D21
70
0
280
1
281
0
0
BLOCK_RECORD
5
75
330
1
100
AcDbSymbolTableRecord
100
AcDbBlockTableRecord
2
*D27
70
0
280
1
281
0
0
BLOCK_RECORD
5
78
330
1
100
AcDbSymbolTableRecord
100
AcDbBlockTableRecord
2
*D16
70
0
280
1
281
0
0
BLOCK_RECORD
5
7B
330
1
100
AcDbSymbolTableRecord
100
AcDbBlockTableRecord
2
*D52
70
0
280
1
281
0
0
BLOCK_RECORD
5
7E
330
1
100
AcDbSymbolTableRecord
100
AcDbBlockTableRecord
2
*D2
70
0
280
1
281
0
0
BLOCK_RECORD
5
81
330
1
100
AcDbSymbolTableRecord
100
AcDbBlockTableRecord
2
*D39
70
0
280
1
281
0
0
BLOCK_RECORD
5
84
330
1
100
AcDbSymbolTableRecord
100
AcDbBlockTableRecord
2
*D44
70
0
280
1
281
0
0
BLOCK_RECORD
5
87
330
1
100
AcDbSymbolTableRecord
100
AcDbBlockTableRecord
2
*D36
70
0
280
1
281
0
0
BLOCK_RECORD
5
8A
330
1
100
AcDbSymbolTableRecord
100
AcDbBlockTableRecord
2
*D12
70
0
280
1
281
0
0
BLOCK_RECORD
5
8D
330
1
100
AcDbSymbolTableRecord
100
AcDbBlockTableRecord
2
*D31
70
0
280
1
281
0
0
BLOCK_RECORD
5
90
330
1
100
AcDbSymbolTableRecord
100
AcDbBlockTableRecord
2
*D33
70
0
280
1
281
0
0
BLOCK_RECORD
5
93
330
1
100
AcDbSymbolTableRecord
100
AcDbBlockTableRecord
2
*D40
70
0
280
1
281
0
0
BLOCK_RECORD
5
96
330
1
100
AcDbSymbolTableRecord
100
AcDbBlockTableRecord
2
*D42
70
0
280
1
281
0
0
BLOCK_RECORD
5
99
330
1
100
AcDbSymbolTableRecord
100
AcDbBlockTableRecord
2
*D25
70
0
280
1
281
0
0
BLOCK_RECORD
5
9C
330
1
100
AcDbSymbolTableRecord
100
AcDbBlockTableRecord
2
*D54
70
0
280
1
281
0
0
BLOCK_RECORD
5
9F
330
1
100
AcDbSymbolTableRecord
100
AcDbBlockTableRecord
2
*D17
70
0
280
1
281
0
0
BLOCK_RECORD
5
A2
330
1
100
AcDbSymbolTableRecord
100
AcDbBlockTableRecord
2
*D32
70
0
280
1
281
0
0
BLOCK_RECORD
5
A5
330
1
100
AcDbSymbolTableRecord
100
AcDbBlockTableRecord
2
*D37
70
0
280
1
281
0
0
BLOCK_RECORD
5
A8
330
1
100
AcDbSymbolTableRecord
100
AcDbBlockTableRecord
2
*D15
70
0
280
1
281
0
0
BLOCK_RECORD
5
AB
330
1
100
AcDbSymbolTableRecord
100
AcDbBlockTableRecord
2
*D34
70
0
280
1
281
0
0
BLOCK_RECORD
5
AE
330
1
100
AcDbSymbolTableRecord
100
AcDbBlockTableRecord
2
*D41
70
0
280
1
281
0
0
BLOCK_RECORD
5
B1
330
1
100
AcDbSymbolTableRecord
100
AcDbBlockTableRecord
2
*D13
70
0
280
1
281
0
0
BLOCK_RECORD
5
B4
330
1
100
AcDbSymbolTableRecord
100
AcDbBlockTableRecord
2
*D9
70
0
280
1
281
0
0
BLOCK_RECORD
5
B7
330
1
100
AcDbSymbolTableRecord
100
AcDbBlockTableRecord
2
*D51
70
0
280
1
281
0
0
BLOCK_RECORD
5
BA
330
1
100
AcDbSymbolTableRecord
100
AcDbBlockTableRecord
2
*D3
70
0
280
1
281
0
0
BLOCK_RECORD
5
BD
330
1
100
AcDbSymbolTableRecord
100
AcDbBlockTableRecord
2
*D30
70
0
280
1
281
0
0
BLOCK_RECORD
5
C0
330
1
100
AcDbSymbolTableRecord
100
AcDbBlockTableRecord
2
*D29
70
0
280
1
281
0
0
BLOCK_RECORD
5
C3
330
1
100
AcDbSymbolTableRecord
100
AcDbBlockTableRecord
2
*D26
70
0
280
1
281
0
0
BLOCK_RECORD
5
C6
330
1
100
AcDbSymbolTableRecord
100
AcDbBlockTableRecord
2
*D45
70
0
280
1
281
0
0
BLOCK_RECORD
5
C9
330
1
100
AcDbSymbolTableRecord
100
AcDbBlockTableRecord
2
*D46
70
0
280
1
281
0
0
BLOCK_RECORD
5
CC
330
1
100
AcDbSymbolTableRecord
100
AcDbBlockTableRecord
2
*D6
70
0
280
1
281
0
0
BLOCK_RECORD
5
CF
330
1
100
AcDbSymbolTableRecord
100
AcDbBlockTableRecord
2
*D53
70
0
280
1
281
0
0
BLOCK_RECORD
5
D2
330
1
100
AcDbSymbolTableRecord
100
AcDbBlockTableRecord
2
*D1
70
0
280
1
281
0
0
BLOCK_RECORD
5
D5
330
1
100
AcDbSymbolTableRecord
100
AcDbBlockTableRecord
2
*D43
70
0
280
1
281
0
0
BLOCK_RECORD
5
D8
330
1
100
AcDbSymbolTableRecord
100
AcDbBlockTableRecord
2
*D23
70
0
280
1
281
0
0
BLOCK_RECORD
5
DB
330
1
100
AcDbSymbolTableRecord
100
AcDbBlockTableRecord
2
*D8
70
0
280
1
281
0
0
BLOCK_RECORD
5
DE
330
1
100
AcDbSymbolTableRecord
100
AcDbBlockTableRecord
2
*D22
70
0
280
1
281
0
0
BLOCK_RECORD
5
E1
330
1
100
AcDbSymbolTableRecord
100
AcDbBlockTableRecord
2
*D10
70
0
280
1
281
0
0
BLOCK_RECORD
5
E4
330
1
100
AcDbSymbolTableRecord
100
AcDbBlockTableRecord
2
*D19
70
0
280
1
281
0
0
BLOCK_RECORD
5
E7
330
1
100
AcDbSymbolTableRecord
100
AcDbBlockTableRecord
2
*D38
70
0
280
1
281
0
0
BLOCK_RECORD
5
EA
330
1
100
AcDbSymbolTableRecord
100
AcDbBlockTableRecord
2
*D18
70
0
280
1
281
0
0
BLOCK_RECORD
5
ED
330
1
100
AcDbSymbolTableRecord
100
AcDbBlockTableRecord
2
*D48
70
0
280
1
281
0
0
BLOCK_RECORD
5
F0
330
1
100
AcDbSymbolTableRecord
100
AcDbBlockTableRecord
2
SSR
70
0
280
1
281
0
0
BLOCK_RECORD
5
F3
330
1
100
AcDbSymbolTableRecord
100
AcDbBlockTableRecord
2
SSRHOLES
70
0
280
1
281
0
0
BLOCK_RECORD
5
F6
330
1
100
AcDbSymbolTableRecord
100
AcDbBlockTableRecord
2
adapter
70
0
280
1
281
0
0
BLOCK_RECORD
5
F9
330
1
100
AcDbSymbolTableRecord
100
AcDbBlockTableRecord
2
lcsoft
70
0
280
1
281
0
0
BLOCK_RECORD
5
FC
330
1
100
AcDbSymbolTableRecord
100
AcDbBlockTableRecord
2
adapterholes
70
0
280
1
281
0
0
BLOCK_RECORD
5
FF
330
1
100
AcDbSymbolTableRecord
100
AcDbBlockTableRecord
2
lcsoftholes
70
0
280
1
281
0
0
BLOCK_RECORD
5
102
330
1
100
AcDbSymbolTableRecord
100
AcDbBlockTableRecord
2
lcsoftmeas
70
0
280
1
281
0
0
ENDTAB
0
ENDSEC
0
SECTION
2
BLOCKS
0
BLOCK
5
20
330
1F
100
AcDbEntity
8
0
100
AcDbBlockBegin
2
*Model_Space
70
0
10
0
20
0
30
0
3
*Model_Space
1

0
ENDBLK
5
21
330
1F
100
AcDbEntity
8
0
100
AcDbBlockEnd
0
BLOCK
5
1C
330
1B
100
AcDbEntity
8
0
100
AcDbBlockBegin
2
*Paper_Space
70
0
10
0
20
0
30
0
3
*Paper_Space
1

0
ENDBLK
5
1D
330
1F
100
AcDbEntity
8
0
100
AcDbBlockEnd
0
BLOCK
5
4F
330
4E
100
AcDbEntity
8
0
100
AcDbBlockBegin
2
*D47
70
1
10
0
20
0
3
*D47
1

0
LINE
5
105
100
AcDbEntity
8
dimension
6
CONTINUOUS
62
7
370
0
100
AcDbLine
10
98
20
5
11
144
21
5
0
SOLID
5
106
100
AcDbEntity
8
dimension
6
CONTINUOUS
62
7
370
0
100
AcDbTrace
10
98
20
5
30
0
11
100.5
21
5.41628465777
31
0
12
100.5
22
4.58371534223
32
0
13
100.5
23
4.58371534223
33
0
0
SOLID
5
107
100
AcDbEntity
8
dimension
6
CONTINUOUS
62
7
370
0
100
AcDbTrace
10
144
20
5
30
0
11
141.5
21
4.58371534223
31
0
12
141.5
22
5.41628465777
32
0
13
141.5
23
5.41628465777
33
0
0
MTEXT
5
108
100
AcDbEntity
8
dimension
6
CONTINUOUS
62
7
370
0
100
AcDbMText
10
121
20
6.875
30
0
40
2.5
41
3.33333333333
71
5
72
1
1
46
7
standard
210
0
220
0
230
1
50
0
73
2
44
1
0
LINE
5
109
100
AcDbEntity
8
dimension
6
CONTINUOUS
62
7
370
0
100
AcDbLine
10
98
20
13.375
11
98
21
3.75
0
LINE
5
10A
100
AcDbEntity
8
dimension
6
CONTINUOUS
62
7
370
0
100
AcDbLine
10
144
20
13.375
11
144
21
3.75
0
ENDBLK
5
50
330
4E
100
AcDbEntity
8
0
100
AcDbBlockEnd
0
BLOCK
5
52
330
51
100
AcDbEntity
8
0
100
AcDbBlockBegin
2
*D20
70
1
10
0
20
0
3
*D20
1

0
LINE
5
10B
100
AcDbEntity
8
dimension
6
CONTINUOUS
62
7
370
0
100
AcDbLine
10
155
20
20.2
11
155
21
2
0
SOLID
5
10C
100
AcDbEntity
8
dimension
6
CONTINUOUS
62
7
370
0
100
AcDbTrace
10
155
20
20.2
30
0
11
155.416284658
21
17.7
31
0
12
154.583715342
22
17.7
32
0
13
154.583715342
23
17.7
33
0
0
SOLID
5
10D
100
AcDbEntity
8
dimension
6
CONTINUOUS
62
7
370
0
100
AcDbTrace
10
155
20
2
30
0
11
154.583715342
21
4.5
31
0
12
155.416284658
22
4.5
32
0
13
155.416284658
23
4.5
33
0
0
MTEXT
5
10E
100
AcDbEntity
8
dimension
6
CONTINUOUS
62
7
370
0
100
AcDbMText
10
153.125
20
11.1
30
0
40
2.5
41
5.27777777778
71
5
72
1
1
18.2
7
standard
210
0
220
0
230
1
50
90
73
2
44
1
0
LINE
5
10F
100
AcDbEntity
8
dimension
6
CONTINUOUS
62
7
370
0
100
AcDbLine
10
146.825
20
20.2
11
156.25
21
20.2
0
LINE
5
110
100
AcDbEntity
8
dimension
6
CONTINUOUS
62
7
370
0
100
AcDbLine
10
141.625
20
2
11
156.25
21
2
0
ENDBLK
5
53
330
51
100
AcDbEntity
8
0
100
AcDbBlockEnd
0
BLOCK
5
55
330
54
100
AcDbEntity
8
0
100
AcDbBlockBegin
2
*D14
70
1
10
0
20
0
3
*D14
1

0
LINE
5
111
100
AcDbEntity
8
dimension
6
CONTINUOUS
62
7
370
0
100
AcDbLine
10
135
20
225
11
142
21
225
0
SOLID
5
112
100
AcDbEntity
8
dimension
6
CONTINUOUS
62
7
370
0
100
AcDbTrace
10
135
20
225
30
0
11
137.5
21
225.416284658
31
0
12
137.5
22
224.583715342
32
0
13
137.5
23
224.583715342
33
0
0
SOLID
5
113
100
AcDbEntity
8
dimension
6
CONTINUOUS
62
7
370
0
100
AcDbTrace
10
142
20
225
30
0
11
139.5
21
224.583715342
31
0
12
139.5
22
225.416284658
32
0
13
139.5
23
225.416284658
33
0
0
MTEXT
5
114
100
AcDbEntity
8
dimension
6
CONTINUOUS
62
7
370
0
100
AcDbMText
10
138.5
20
226.875
30
0
40
2.5
41
1.11111111111
71
5
72
1
1
7
7
standard
210
0
220
0
230
1
50
0
73
2
44
1
0
LINE
5
115
100
AcDbEntity
8
dimension
6
CONTINUOUS
62
7
370
0
100
AcDbLine
10
135
20
220.625
11
135
21
226.25
0
LINE
5
116
100
AcDbEntity
8
dimension
6
CONTINUOUS
62
7
370
0
100
AcDbLine
10
142
20
220.625
11
142
21
226.25
0
ENDBLK
5
56
330
54
100
AcDbEntity
8
0
100
AcDbBlockEnd
0
BLOCK
5
58
330
57
100
AcDbEntity
8
0
100
AcDbBlockBegin
2
*D4
70
1
10
0
20
0
3
*D4
1

0
LINE
5
117
100
AcDbEntity
8
0
6
CONTINUOUS
62
7
370
0
100
AcDbLine
10
-20
20
187.5
11
-20
21
242.5
0
SOLID
5
118
100
AcDbEntity
8
0
6
CONTINUOUS
62
7
370
0
100
AcDbTrace
10
-20
20
187.5
30
0
11
-20.4162846578
21
190
31
0
12
-19.5837153422
22
190
32
0
13
-19.5837153422
23
190
33
0
0
SOLID
5
119
100
AcDbEntity
8
0
6
CONTINUOUS
62
7
370
0
100
AcDbTrace
10
-20
20
242.5
30
0
11
-19.5837153422
21
240
31
0
12
-20.4162846578
22
240
32
0
13
-20.4162846578
23
240
33
0
0
MTEXT
5
11A
100
AcDbEntity
8
0
6
CONTINUOUS
62
7
370
0
100
AcDbMText
10
-21.875
20
215
30
0
40
2.5
41
3.05555555556
71
5
72
1
1
55
7
standard
210
0
220
0
230
1
50
90
73
2
44
1
0
LINE
5
11B
100
AcDbEntity
8
0
6
CONTINUOUS
62
7
370
0
100
AcDbLine
10
5.375
20
187.5
11
-21.25
21
187.5
0
LINE
5
11C
100
AcDbEntity
8
0
6
CONTINUOUS
62
7
370
0
100
AcDbLine
10
3.375
20
242.5
11
-21.25
21
242.5
0
ENDBLK
5
59
330
57
100
AcDbEntity
8
0
100
AcDbBlockEnd
0
BLOCK
5
5B
330
5A
100
AcDbEntity
8
0
100
AcDbBlockBegin
2
*D35
70
1
10
0
20
0
3
*D35
1

0
LINE
5
11D
100
AcDbEntity
8
dimension
6
CONTINUOUS
62
7
370
0
100
AcDbLine
10
11
20
30
11
-5
21
30
0
SOLID
5
11E
100
AcDbEntity
8
dimension
6
CONTINUOUS
62
7
370
0
100
AcDbTrace
10
6
20
30
30
0
11
8.5
21
30.4162846578
31
0
12
8.5
22
29.5837153422
32
0
13
8.5
23
29.5837153422
33
0
0
SOLID
5
11F
100
AcDbEntity
8
dimension
6
CONTINUOUS
62
7
370
0
100
AcDbTrace
10
0
20
30
30
0
11
-2.5
21
29.5837153422
31
0
12
-2.5
22
30.4162846578
32
0
13
-2.5
23
30.4162846578
33
0
0
MTEXT
5
120
100
AcDbEntity
8
dimension
6
CONTINUOUS
62
7
370
0
100
AcDbMText
10
3
20
31.875
30
0
40
2.5
41
1.11111111111
71
5
72
1
1
6
7
standard
210
0
220
0
230
1
50
360
73
2
44
1
0
LINE
5
121
100
AcDbEntity
8
dimension
6
CONTINUOUS
62
7
370
0
100
AcDbLine
10
6
20
14.625
11
6
21
31.25
0
LINE
5
122
100
AcDbEntity
8
dimension
6
CONTINUOUS
62
7
370
0
100
AcDbLine
10
3.82702124734e-17
20
14.625
11
7.65404249467e-17
21
31.25
0
ENDBLK
5
5C
330
5A
100
AcDbEntity
8
0
100
AcDbBlockEnd
0
BLOCK
5
5E
330
5D
100
AcDbEntity
8
0
100
AcDbBlockBegin
2
*D49
70
1
10
0
20
0
3
*D49
1

0
LINE
5
123
100
AcDbEntity
8
dimension
6
CONTINUOUS
62
7
370
0
100
AcDbLine
10
17
20
14
11
17
21
2
0
SOLID
5
124
100
AcDbEntity
8
dimension
6
CONTINUOUS
62
7
370
0
100
AcDbTrace
10
17
20
14
30
0
11
17.4162846578
21
11.5
31
0
12
16.5837153422
22
11.5
32
0
13
16.5837153422
23
11.5
33
0
0
SOLID
5
125
100
AcDbEntity
8
dimension
6
CONTINUOUS
62
7
370
0
100
AcDbTrace
10
17
20
2
30
0
11
16.5837153422
21
4.5
31
0
12
17.4162846578
22
4.5
32
0
13
17.4162846578
23
4.5
33
0
0
MTEXT
5
126
100
AcDbEntity
8
dimension
6
CONTINUOUS
62
7
370
0
100
AcDbMText
10
15.125
20
8
30
0
40
2.5
41
2.5
71
5
72
1
1
12
7
standard
210
0
220
0
230
1
50
90
73
2
44
1
0
LINE
5
127
100
AcDbEntity
8
dimension
6
CONTINUOUS
62
7
370
0
100
AcDbLine
10
6.625
20
14
11
18.25
21
14
0
LINE
5
128
100
AcDbEntity
8
dimension
6
CONTINUOUS
62
7
370
0
100
AcDbLine
10
9.625
20
2
11
18.25
21
2
0
ENDBLK
5
5F
330
5D
100
AcDbEntity
8
0
100
AcDbBlockEnd
0
BLOCK
5
61
330
60
100
AcDbEntity
8
0
100
AcDbBlockBegin
2
*D11
70
1
10
0
20
0
3
*D11
1

0
LINE
5
129
100
AcDbEntity
8
dimension
6
CONTINUOUS
62
7
370
0
100
AcDbLine
10
75
20
21
11
75
21
36
0
SOLID
5
12A
100
AcDbEntity
8
dimension
6
CONTINUOUS
62
7
370
0
100
AcDbTrace
10
75
20
21
30
0
11
74.5837153422
21
23.5
31
0
12
75.4162846578
22
23.5
32
0
13
75.4162846578
23
23.5
33
0
0
SOLID
5
12B
100
AcDbEntity
8
dimension
6
CONTINUOUS
62
7
370
0
100
AcDbTrace
10
75
20
36
30
0
11
75.4162846578
21
33.5
31
0
12
74.5837153422
22
33.5
32
0
13
74.5837153422
23
33.5
33
0
0
MTEXT
5
12C
100
AcDbEntity
8
dimension
6
CONTINUOUS
62
7
370
0
100
AcDbMText
10
73.125
20
28.5
30
0
40
2.5
41
2.5
71
5
72
1
1
15
7
standard
210
0
220
0
230
1
50
90
73
2
44
1
0
LINE
5
12D
100
AcDbEntity
8
dimension
6
CONTINUOUS
62
7
370
0
100
AcDbLine
10
56.625
20
21
11
76.25
21
21
0
LINE
5
12E
100
AcDbEntity
8
dimension
6
CONTINUOUS
62
7
370
0
100
AcDbLine
10
69.625
20
36
11
76.25
21
36
0
ENDBLK
5
62
330
60
100
AcDbEntity
8
0
100
AcDbBlockEnd
0
BLOCK
5
64
330
63
100
AcDbEntity
8
0
100
AcDbBlockBegin
2
*D24
70
1
10
0
20
0
3
*D24
1

0
LINE
5
12F
100
AcDbEntity
8
0
6
CONTINUOUS
62
7
370
0
100
AcDbLine
10
152
20
7
11
172
21
7
0
SOLID
5
130
100
AcDbEntity
8
0
6
CONTINUOUS
62
7
370
0
100
AcDbTrace
10
152
20
7
30
0
11
154.5
21
7.41628465777
31
0
12
154.5
22
6.58371534223
32
0
13
154.5
23
6.58371534223
33
0
0
ENDBLK
5
65
330
63
100
AcDbEntity
8
0
100
AcDbBlockEnd
0
BLOCK
5
67
330
66
100
AcDbEntity
8
0
100
AcDbBlockBegin
2
*D7
70
1
10
0
20
0
3
*D7
1

0
LINE
5
131
100
AcDbEntity
8
dimension
6
CONTINUOUS
62
7
370
0
100
AcDbLine
10
-10
20
175
11
-10
21
185
0
SOLID
5
132
100
AcDbEntity
8
dimension
6
CONTINUOUS
62
7
370
0
100
AcDbTrace
10
-10
20
175
30
0
11
-10.4162846578
21
177.5
31
0
12
-9.58371534223
22
177.5
32
0
13
-9.58371534223
23
177.5
33
0
0
SOLID
5
133
100
AcDbEntity
8
dimension
6
CONTINUOUS
62
7
370
0
100
AcDbTrace
10
-10
20
185
30
0
11
-9.58371534223
21
182.5
31
0
12
-10.4162846578
22
182.5
32
0
13
-10.4162846578
23
182.5
33
0
0
MTEXT
5
134
100
AcDbEntity
8
dimension
6
CONTINUOUS
62
7
370
0
100
AcDbMText
10
-11.875
20
180
30
0
40
2.5
41
2.5
71
5
72
1
1
10
7
standard
210
0
220
0
230
1
50
90
73
2
44
1
0
LINE
5
135
100
AcDbEntity
8
dimension
6
CONTINUOUS
62
7
370
0
100
AcDbLine
10
-0.625
20
175
11
-11.25
21
175
0
LINE
5
136
100
AcDbEntity
8
dimension
6
CONTINUOUS
62
7
370
0
100
AcDbLine
10
-0.625
20
185
11
-11.25
21
185
0
ENDBLK
5
68
330
66
100
AcDbEntity
8
0
100
AcDbBlockEnd
0
BLOCK
5
6A
330
69
100
AcDbEntity
8
0
100
AcDbBlockBegin
2
*D50
70
1
10
0
20
0
3
*D50
1

0
LINE
5
137
100
AcDbEntity
8
dimension
6
CONTINUOUS
62
7
370
0
100
AcDbLine
10
9.5
20
68
11
140.5
21
68
0
SOLID
5
138
100
AcDbEntity
8
dimension
6
CONTINUOUS
62
7
370
0
100
AcDbTrace
10
9.5
20
68
30
0
11
12
21
68.4162846578
31
0
12
12
22
67.5837153422
32
0
13
12
23
67.5837153422
33
0
0
SOLID
5
139
100
AcDbEntity
8
dimension
6
CONTINUOUS
62
7
370
0
100
AcDbTrace
10
140.5
20
68
30
0
11
138
21
67.5837153422
31
0
12
138
22
68.4162846578
32
0
13
138
23
68.4162846578
33
0
0
MTEXT
5
13A
100
AcDbEntity
8
dimension
6
CONTINUOUS
62
7
370
0
100
AcDbMText
10
80
20
70
30
0
40
2.5
41
3.88888888889
71
5
72
1
1
131
7
standard
210
0
220
0
230
1
50
0
73
2
44
1
0
LINE
5
13B
100
AcDbEntity
8
dimension
6
CONTINUOUS
62
7
370
0
100
AcDbLine
10
9.5
20
63.125
11
9.5
21
69.25
0
LINE
5
13C
100
AcDbEntity
8
dimension
6
CONTINUOUS
62
7
370
0
100
AcDbLine
10
140.5
20
63.125
11
140.5
21
69.25
0
ENDBLK
5
6B
330
69
100
AcDbEntity
8
0
100
AcDbBlockEnd
0
BLOCK
5
6D
330
6C
100
AcDbEntity
8
0
100
AcDbBlockBegin
2
*D5
70
1
10
0
20
0
3
*D5
1

0
LINE
5
13D
100
AcDbEntity
8
dimension
6
CONTINUOUS
62
7
370
0
100
AcDbLine
10
160
20
220
11
160
21
157
0
SOLID
5
13E
100
AcDbEntity
8
dimension
6
CONTINUOUS
62
7
370
0
100
AcDbTrace
10
160
20
220
30
0
11
160.416284658
21
217.5
31
0
12
159.583715342
22
217.5
32
0
13
159.583715342
23
217.5
33
0
0
SOLID
5
13F
100
AcDbEntity
8
dimension
6
CONTINUOUS
62
7
370
0
100
AcDbTrace
10
160
20
157
30
0
11
159.583715342
21
159.5
31
0
12
160.416284658
22
159.5
32
0
13
160.416284658
23
159.5
33
0
0
MTEXT
5
140
100
AcDbEntity
8
dimension
6
CONTINUOUS
62
7
370
0
100
AcDbMText
10
158.125
20
188.5
30
0
40
2.5
41
3.05555555556
71
5
72
1
1
63
7
standard
210
0
220
0
230
1
50
90
73
2
44
1
0
LINE
5
141
100
AcDbEntity
8
dimension
6
CONTINUOUS
62
7
370
0
100
AcDbLine
10
135.625
20
220
11
161.25
21
220
0
LINE
5
142
100
AcDbEntity
8
dimension
6
CONTINUOUS
62
7
370
0
100
AcDbLine
10
135.625
20
157
11
161.25
21
157
0
ENDBLK
5
6E
330
6C
100
AcDbEntity
8
0
100
AcDbBlockEnd
0
BLOCK
5
70
330
6F
100
AcDbEntity
8
0
100
AcDbBlockBegin
2
*D28
70
1
10
0
20
0
3
*D28
1

0
LINE
5
143
100
AcDbEntity
8
dimension
6
CONTINUOUS
62
7
370
0
100
AcDbLine
10
170
20
244
11
170
21
157
0
SOLID
5
144
100
AcDbEntity
8
dimension
6
CONTINUOUS
62
7
370
0
100
AcDbTrace
10
170
20
244
30
0
11
170.416284658
21
241.5
31
0
12
169.583715342
22
241.5
32
0
13
169.583715342
23
241.5
33
0
0
SOLID
5
145
100
AcDbEntity
8
dimension
6
CONTINUOUS
62
7
370
0
100
AcDbTrace
10
170
20
157
30
0
11
169.583715342
21
159.5
31
0
12
170.416284658
22
159.5
32
0
13
170.416284658
23
159.5
33
0
0
MTEXT
5
146
100
AcDbEntity
8
dimension
6
CONTINUOUS
62
7
370
0
100
AcDbMText
10
168.125
20
200.5
30
0
40
2.5
41
3.05555555556
71
5
72
1
1
87
7
standard
210
0
220
0
230
1
50
90
73
2
44
1
0
LINE
5
147
100
AcDbEntity
8
dimension
6
CONTINUOUS
62
7
370
0
100
AcDbLine
10
142.625
20
244
11
171.25
21
244
0
LINE
5
148
100
AcDbEntity
8
dimension
6
CONTINUOUS
62
7
370
0
100
AcDbLine
10
135.625
20
157
11
171.25
21
157
0
ENDBLK
5
71
330
6F
100
AcDbEntity
8
0
100
AcDbBlockEnd
0
BLOCK
5
73
330
72
100
AcDbEntity
8
0
100
AcDbBlockBegin
2
*D21
70
1
10
0
20
0
3
*D21
1

0
LINE
5
149
100
AcDbEntity
8
dimension
6
CONTINUOUS
62
7
370
0
100
AcDbLine
10
9
20
-13
11
141
21
-13
0
SOLID
5
14A
100
AcDbEntity
8
dimension
6
CONTINUOUS
62
7
370
0
100
AcDbTrace
10
9
20
-13
30
0
11
11.5
21
-12.5837153422
31
0
12
11.5
22
-13.4162846578
32
0
13
11.5
23
-13.4162846578
33
0
0
SOLID
5
14B
100
AcDbEntity
8
dimension
6
CONTINUOUS
62
7
370
0
100
AcDbTrace
10
141
20
-13
30
0
11
138.5
21
-13.4162846578
31
0
12
138.5
22
-12.5837153422
32
0
13
138.5
23
-12.5837153422
33
0
0
MTEXT
5
14C
100
AcDbEntity
8
dimension
6
CONTINUOUS
62
7
370
0
100
AcDbMText
10
75
20
-11.125
30
0
40
2.5
41
4.44444444444
71
5
72
1
1
132
7
standard
210
0
220
0
230
1
50
0
73
2
44
1
0
LINE
5
14D
100
AcDbEntity
8
dimension
6
CONTINUOUS
62
7
370
0
100
AcDbLine
10
9
20
1.375
11
9
21
-14.25
0
LINE
5
14E
100
AcDbEntity
8
dimension
6
CONTINUOUS
62
7
370
0
100
AcDbLine
10
141
20
1.375
11
141
21
-14.25
0
ENDBLK
5
74
330
72
100
AcDbEntity
8
0
100
AcDbBlockEnd
0
BLOCK
5
76
330
75
100
AcDbEntity
8
0
100
AcDbBlockBegin
2
*D27
70
1
10
0
20
0
3
*D27
1

0
LINE
5
14F
100
AcDbEntity
8
dimension
6
CONTINUOUS
62
7
370
0
100
AcDbLine
10
160
20
220
11
160
21
244
0
SOLID
5
150
100
AcDbEntity
8
dimension
6
CONTINUOUS
62
7
370
0
100
AcDbTrace
10
160
20
220
30
0
11
159.583715342
21
222.5
31
0
12
160.416284658
22
222.5
32
0
13
160.416284658
23
222.5
33
0
0
SOLID
5
151
100
AcDbEntity
8
dimension
6
CONTINUOUS
62
7
370
0
100
AcDbTrace
10
160
20
244
30
0
11
160.416284658
21
241.5
31
0
12
159.583715342
22
241.5
32
0
13
159.583715342
23
241.5
33
0
0
MTEXT
5
152
100
AcDbEntity
8
dimension
6
CONTINUOUS
62
7
370
0
100
AcDbMText
10
158.125
20
232
30
0
40
2.5
41
3.33333333333
71
5
72
1
1
24
7
standard
210
0
220
0
230
1
50
90
73
2
44
1
0
LINE
5
153
100
AcDbEntity
8
dimension
6
CONTINUOUS
62
7
370
0
100
AcDbLine
10
135.625
20
220
11
161.25
21
220
0
LINE
5
154
100
AcDbEntity
8
dimension
6
CONTINUOUS
62
7
370
0
100
AcDbLine
10
142.625
20
244
11
161.25
21
244
0
ENDBLK
5
77
330
75
100
AcDbEntity
8
0
100
AcDbBlockEnd
0
BLOCK
5
79
330
78
100
AcDbEntity
8
0
100
AcDbBlockBegin
2
*D16
70
1
10
0
20
0
3
*D16
1

0
LINE
5
155
100
AcDbEntity
8
dimension
6
CONTINUOUS
62
7
370
0
100
AcDbLine
10
0
20
210
11
8
21
210
0
SOLID
5
156
100
AcDbEntity
8
dimension
6
CONTINUOUS
62
7
370
0
100
AcDbTrace
10
0
20
210
30
0
11
2.5
21
210.416284658
31
0
12
2.5
22
209.583715342
32
0
13
2.5
23
209.583715342
33
0
0
SOLID
5
157
100
AcDbEntity
8
dimension
6
CONTINUOUS
62
7
370
0
100
AcDbTrace
10
8
20
210
30
0
11
5.5
21
209.583715342
31
0
12
5.5
22
210.416284658
32
0
13
5.5
23
210.416284658
33
0
0
MTEXT
5
158
100
AcDbEntity
8
dimension
6
CONTINUOUS
62
7
370
0
100
AcDbMText
10
4
20
211.875
30
0
40
2.5
41
1.11111111111
71
5
72
1
1
8
7
standard
210
0
220
0
230
1
50
0
73
2
44
1
0
LINE
5
159
100
AcDbEntity
8
dimension
6
CONTINUOUS
62
7
370
0
100
AcDbLine
10
3.82702124734e-17
20
200.625
11
7.65404249467e-17
21
211.25
0
LINE
5
15A
100
AcDbEntity
8
dimension
6
CONTINUOUS
62
7
370
0
100
AcDbLine
10
8
20
200.625
11
8
21
211.25
0
ENDBLK
5
7A
330
78
100
AcDbEntity
8
0
100
AcDbBlockEnd
0
BLOCK
5
7C
330
7B
100
AcDbEntity
8
0
100
AcDbBlockBegin
2
*D52
70
1
10
0
20
0
3
*D52
1

0
LINE
5
15B
100
AcDbEntity
8
dimension
6
CONTINUOUS
62
7
370
0
100
AcDbLine
10
-5
20
9
11
-5
21
2
0
SOLID
5
15C
100
AcDbEntity
8
dimension
6
CONTINUOUS
62
7
370
0
100
AcDbTrace
10
-5
20
9
30
0
11
-4.58371534223
21
6.5
31
0
12
-5.41628465777
22
6.5
32
0
13
-5.41628465777
23
6.5
33
0
0
SOLID
5
15D
100
AcDbEntity
8
dimension
6
CONTINUOUS
62
7
370
0
100
AcDbTrace
10
-5
20
2
30
0
11
-5.41628465777
21
4.5
31
0
12
-4.58371534223
22
4.5
32
0
13
-4.58371534223
23
4.5
33
0
0
MTEXT
5
15E
100
AcDbEntity
8
dimension
6
CONTINUOUS
62
7
370
0
100
AcDbMText
10
-6.875
20
5.5
30
0
40
2.5
41
1.11111111111
71
5
72
1
1
7
7
standard
210
0
220
0
230
1
50
90
73
2
44
1
0
LINE
5
15F
100
AcDbEntity
8
dimension
6
CONTINUOUS
62
7
370
0
100
AcDbLine
10
-0.625
20
9
11
-6.25
21
9
0
LINE
5
160
100
AcDbEntity
8
dimension
6
CONTINUOUS
62
7
370
0
100
AcDbLine
10
8.375
20
2
11
-6.25
21
2
0
ENDBLK
5
7D
330
7B
100
AcDbEntity
8
0
100
AcDbBlockEnd
0
BLOCK
5
7F
330
7E
100
AcDbEntity
8
0
100
AcDbBlockBegin
2
*D2
70
1
10
0
20
0
3
*D2
1

0
LINE
5
161
100
AcDbEntity
8
dimension
6
CONTINUOUS
62
7
370
0
100
AcDbLine
10
-20
20
62.5
11
-20
21
187.5
0
SOLID
5
162
100
AcDbEntity
8
dimension
6
CONTINUOUS
62
7
370
0
100
AcDbTrace
10
-20
20
62.5
30
0
11
-20.4162846578
21
65
31
0
12
-19.5837153422
22
65
32
0
13
-19.5837153422
23
65
33
0
0
SOLID
5
163
100
AcDbEntity
8
dimension
6
CONTINUOUS
62
7
370
0
100
AcDbTrace
10
-20
20
187.5
30
0
11
-19.5837153422
21
185
31
0
12
-20.4162846578
22
185
32
0
13
-20.4162846578
23
185
33
0
0
MTEXT
5
164
100
AcDbEntity
8
dimension
6
CONTINUOUS
62
7
370
0
100
AcDbMText
10
-21.875
20
125
30
0
40
2.5
41
4.44444444444
71
5
72
1
1
125
7
standard
210
0
220
0
230
1
50
90
73
2
44
1
0
LINE
5
165
100
AcDbEntity
8
dimension
6
CONTINUOUS
62
7
370
0
100
AcDbLine
10
3.875
20
62.5
11
-21.25
21
62.5
0
LINE
5
166
100
AcDbEntity
8
dimension
6
CONTINUOUS
62
7
370
0
100
AcDbLine
10
3.875
20
187.5
11
-21.25
21
187.5
0
ENDBLK
5
80
330
7E
100
AcDbEntity
8
0
100
AcDbBlockEnd
0
BLOCK
5
82
330
81
100
AcDbEntity
8
0
100
AcDbBlockBegin
2
*D39
70
1
10
0
20
0
3
*D39
1

0
LINE
5
167
100
AcDbEntity
8
dimension
6
CONTINUOUS
62
7
370
0
100
AcDbLine
10
318
20
0
11
318
21
7
0
SOLID
5
168
100
AcDbEntity
8
dimension
6
CONTINUOUS
62
7
370
0
100
AcDbTrace
10
318
20
0
30
0
11
317.583715342
21
2.5
31
0
12
318.416284658
22
2.5
32
0
13
318.416284658
23
2.5
33
0
0
SOLID
5
169
100
AcDbEntity
8
dimension
6
CONTINUOUS
62
7
370
0
100
AcDbTrace
10
318
20
7
30
0
11
318.416284658
21
4.5
31
0
12
317.583715342
22
4.5
32
0
13
317.583715342
23
4.5
33
0
0
MTEXT
5
16A
100
AcDbEntity
8
dimension
6
CONTINUOUS
62
7
370
0
100
AcDbMText
10
316.125
20
3.5
30
0
40
2.5
41
1.11111111111
71
5
72
1
1
7
7
standard
210
0
220
0
230
1
50
90
73
2
44
1
0
LINE
5
16B
100
AcDbEntity
8
dimension
6
CONTINUOUS
62
7
370
0
100
AcDbLine
10
322.375
20
7.65404249467e-17
11
316.75
21
1.53080849893e-16
0
LINE
5
16C
100
AcDbEntity
8
dimension
6
CONTINUOUS
62
7
370
0
100
AcDbLine
10
322.375
20
7
11
316.75
21
7
0
ENDBLK
5
83
330
81
100
AcDbEntity
8
0
100
AcDbBlockEnd
0
BLOCK
5
85
330
84
100
AcDbEntity
8
0
100
AcDbBlockBegin
2
*D44
70
1
10
0
20
0
3
*D44
1

0
LINE
5
16D
100
AcDbEntity
8
dimension
6
CONTINUOUS
62
7
370
0
100
AcDbLine
10
110
20
20.2
11
110
21
54.8
0
SOLID
5
16E
100
AcDbEntity
8
dimension
6
CONTINUOUS
62
7
370
0
100
AcDbTrace
10
110
20
20.2
30
0
11
109.583715342
21
22.7
31
0
12
110.416284658
22
22.7
32
0
13
110.416284658
23
22.7
33
0
0
SOLID
5
16F
100
AcDbEntity
8
dimension
6
CONTINUOUS
62
7
370
0
100
AcDbTrace
10
110
20
54.8
30
0
11
110.416284658
21
52.3
31
0
12
109.583715342
22
52.3
32
0
13
109.583715342
23
52.3
33
0
0
MTEXT
5
170
100
AcDbEntity
8
dimension
6
CONTINUOUS
62
7
370
0
100
AcDbMText
10
108.125
20
37.5
30
0
40
2.5
41
6.11111111111
71
5
72
1
1
34.6
7
standard
210
0
220
0
230
1
50
90
73
2
44
1
0
LINE
5
171
100
AcDbEntity
8
dimension
6
CONTINUOUS
62
7
370
0
100
AcDbLine
10
99.425
20
20.2
11
111.25
21
20.2
0
LINE
5
172
100
AcDbEntity
8
dimension
6
CONTINUOUS
62
7
370
0
100
AcDbLine
10
99.425
20
54.8
11
111.25
21
54.8
0
ENDBLK
5
86
330
84
100
AcDbEntity
8
0
100
AcDbBlockEnd
0
BLOCK
5
88
330
87
100
AcDbEntity
8
0
100
AcDbBlockBegin
2
*D36
70
1
10
0
20
0
3
*D36
1

0
LINE
5
173
100
AcDbEntity
8
dimension
6
CONTINUOUS
62
7
370
0
100
AcDbLine
10
139
20
82
11
155
21
82
0
SOLID
5
174
100
AcDbEntity
8
dimension
6
CONTINUOUS
62
7
370
0
100
AcDbTrace
10
144
20
82
30
0
11
141.5
21
81.5837153422
31
0
12
141.5
22
82.4162846578
32
0
13
141.5
23
82.4162846578
33
0
0
SOLID
5
175
100
AcDbEntity
8
dimension
6
CONTINUOUS
62
7
370
0
100
AcDbTrace
10
150
20
82
30
0
11
152.5
21
82.4162846578
31
0
12
152.5
22
81.5837153422
32
0
13
152.5
23
81.5837153422
33
0
0
MTEXT
5
176
100
AcDbEntity
8
dimension
6
CONTINUOUS
62
7
370
0
100
AcDbMText
10
147
20
83.875
30
0
40
2.5
41
1.11111111111
71
5
72
1
1
6
7
standard
210
0
220
0
230
1
50
0
73
2
44
1
0
LINE
5
177
100
AcDbEntity
8
dimension
6
CONTINUOUS
62
7
370
0
100
AcDbLine
10
144
20
73.625
11
144
21
83.25
0
LINE
5
178
100
AcDbEntity
8
dimension
6
CONTINUOUS
62
7
370
0
100
AcDbLine
10
150
20
77.625
11
150
21
83.25
0
ENDBLK
5
89
330
87
100
AcDbEntity
8
0
100
AcDbBlockEnd
0
BLOCK
5
8B
330
8A
100
AcDbEntity
8
0
100
AcDbBlockBegin
2
*D12
70
1
10
0
20
0
3
*D12
1

0
LINE
5
179
100
AcDbEntity
8
dimension
6
CONTINUOUS
62
7
370
0
100
AcDbLine
10
-10
20
77
11
-10
21
65
0
SOLID
5
17A
100
AcDbEntity
8
dimension
6
CONTINUOUS
62
7
370
0
100
AcDbTrace
10
-10
20
77
30
0
11
-9.58371534223
21
74.5
31
0
12
-10.4162846578
22
74.5
32
0
13
-10.4162846578
23
74.5
33
0
0
SOLID
5
17B
100
AcDbEntity
8
dimension
6
CONTINUOUS
62
7
370
0
100
AcDbTrace
10
-10
20
65
30
0
11
-10.4162846578
21
67.5
31
0
12
-9.58371534223
22
67.5
32
0
13
-9.58371534223
23
67.5
33
0
0
MTEXT
5
17C
100
AcDbEntity
8
dimension
6
CONTINUOUS
62
7
370
0
100
AcDbMText
10
-11.875
20
71
30
0
40
2.5
41
2.5
71
5
72
1
1
12
7
standard
210
0
220
0
230
1
50
90
73
2
44
1
0
LINE
5
17D
100
AcDbEntity
8
dimension
6
CONTINUOUS
62
7
370
0
100
AcDbLine
10
-0.625
20
77
11
-11.25
21
77
0
LINE
5
17E
100
AcDbEntity
8
dimension
6
CONTINUOUS
62
7
370
0
100
AcDbLine
10
-0.625
20
65
11
-11.25
21
65
0
ENDBLK
5
8C
330
8A
100
AcDbEntity
8
0
100
AcDbBlockEnd
0
BLOCK
5
8E
330
8D
100
AcDbEntity
8
0
100
AcDbBlockBegin
2
*D31
70
1
10
0
20
0
3
*D31
1

0
LINE
5
17F
100
AcDbEntity
8
dimension
6
CONTINUOUS
62
7
370
0
100
AcDbLine
10
94
20
-6
11
141
21
-6
0
SOLID
5
180
100
AcDbEntity
8
dimension
6
CONTINUOUS
62
7
370
0
100
AcDbTrace
10
94
20
-6
30
0
11
96.5
21
-5.58371534223
31
0
12
96.5
22
-6.41628465777
32
0
13
96.5
23
-6.41628465777
33
0
0
SOLID
5
181
100
AcDbEntity
8
dimension
6
CONTINUOUS
62
7
370
0
100
AcDbTrace
10
141
20
-6
30
0
11
138.5
21
-6.41628465777
31
0
12
138.5
22
-5.58371534223
32
0
13
138.5
23
-5.58371534223
33
0
0
MTEXT
5
182
100
AcDbEntity
8
dimension
6
CONTINUOUS
62
7
370
0
100
AcDbMText
10
117.5
20
-4.125
30
0
40
2.5
41
3.33333333333
71
5
72
1
1
47
7
standard
210
0
220
0
230
1
50
0
73
2
44
1
0
LINE
5
183
100
AcDbEntity
8
dimension
6
CONTINUOUS
62
7
370
0
100
AcDbLine
10
94
20
1.375
11
94
21
-7.25
0
LINE
5
184
100
AcDbEntity
8
dimension
6
CONTINUOUS
62
7
370
0
100
AcDbLine
10
141
20
1.375
11
141
21
-7.25
0
ENDBLK
5
8F
330
8D
100
AcDbEntity
8
0
100
AcDbBlockEnd
0
BLOCK
5
91
330
90
100
AcDbEntity
8
0
100
AcDbBlockBegin
2
*D33
70
1
10
0
20
0
3
*D33
1

0
LINE
5
185
100
AcDbEntity
8
dimension
6
CONTINUOUS
62
7
370
0
100
AcDbLine
10
6
20
30
11
52
21
30
0
SOLID
5
186
100
AcDbEntity
8
dimension
6
CONTINUOUS
62
7
370
0
100
AcDbTrace
10
6
20
30
30
0
11
8.5
21
30.4162846578
31
0
12
8.5
22
29.5837153422
32
0
13
8.5
23
29.5837153422
33
0
0
SOLID
5
187
100
AcDbEntity
8
dimension
6
CONTINUOUS
62
7
370
0
100
AcDbTrace
10
52
20
30
30
0
11
49.5
21
29.5837153422
31
0
12
49.5
22
30.4162846578
32
0
13
49.5
23
30.4162846578
33
0
0
MTEXT
5
188
100
AcDbEntity
8
dimension
6
CONTINUOUS
62
7
370
0
100
AcDbMText
10
29
20
31.875
30
0
40
2.5
41
3.33333333333
71
5
72
1
1
46
7
standard
210
0
220
0
230
1
50
0
73
2
44
1
0
LINE
5
189
100
AcDbEntity
8
dimension
6
CONTINUOUS
62
7
370
0
100
AcDbLine
10
6
20
14.625
11
6
21
31.25
0
LINE
5
18A
100
AcDbEntity
8
dimension
6
CONTINUOUS
62
7
370
0
100
AcDbLine
10
52
20
14.625
11
52
21
31.25
0
ENDBLK
5
92
330
90
100
AcDbEntity
8
0
100
AcDbBlockEnd
0
BLOCK
5
94
330
93
100
AcDbEntity
8
0
100
AcDbBlockBegin
2
*D40
70
1
10
0
20
0
3
*D40
1

0
LINE
5
18B
100
AcDbEntity
8
dimension
6
CONTINUOUS
62
7
370
0
100
AcDbLine
10
306
20
0
11
306
21
58
0
SOLID
5
18C
100
AcDbEntity
8
dimension
6
CONTINUOUS
62
7
370
0
100
AcDbTrace
10
306
20
0
30
0
11
305.583715342
21
2.5
31
0
12
306.416284658
22
2.5
32
0
13
306.416284658
23
2.5
33
0
0
SOLID
5
18D
100
AcDbEntity
8
dimension
6
CONTINUOUS
62
7
370
0
100
AcDbTrace
10
306
20
58
30
0
11
306.416284658
21
55.5
31
0
12
305.583715342
22
55.5
32
0
13
305.583715342
23
55.5
33
0
0
MTEXT
5
18E
100
AcDbEntity
8
dimension
6
CONTINUOUS
62
7
370
0
100
AcDbMText
10
304.125
20
29
30
0
40
2.5
41
3.05555555556
71
5
72
1
1
58
7
standard
210
0
220
0
230
1
50
90
73
2
44
1
0
LINE
5
18F
100
AcDbEntity
8
dimension
6
CONTINUOUS
62
7
370
0
100
AcDbLine
10
322.375
20
7.65404249467e-17
11
304.75
21
1.53080849893e-16
0
LINE
5
190
100
AcDbEntity
8
dimension
6
CONTINUOUS
62
7
370
0
100
AcDbLine
10
322.375
20
58
11
304.75
21
58
0
ENDBLK
5
95
330
93
100
AcDbEntity
8
0
100
AcDbBlockEnd
0
BLOCK
5
97
330
96
100
AcDbEntity
8
0
100
AcDbBlockBegin
2
*D42
70
1
10
0
20
0
3
*D42
1

0
LINE
5
191
100
AcDbEntity
8
dimension
6
CONTINUOUS
62
7
370
0
100
AcDbLine
10
300
20
15
11
346
21
15
0
SOLID
5
192
100
AcDbEntity
8
dimension
6
CONTINUOUS
62
7
370
0
100
AcDbTrace
10
300
20
15
30
0
11
302.5
21
15.4162846578
31
0
12
302.5
22
14.5837153422
32
0
13
302.5
23
14.5837153422
33
0
0
SOLID
5
193
100
AcDbEntity
8
dimension
6
CONTINUOUS
62
7
370
0
100
AcDbTrace
10
346
20
15
30
0
11
343.5
21
14.5837153422
31
0
12
343.5
22
15.4162846578
32
0
13
343.5
23
15.4162846578
33
0
0
MTEXT
5
194
100
AcDbEntity
8
dimension
6
CONTINUOUS
62
7
370
0
100
AcDbMText
10
323
20
16.875
30
0
40
2.5
41
3.33333333333
71
5
72
1
1
46
7
standard
210
0
220
0
230
1
50
0
73
2
44
1
0
LINE
5
195
100
AcDbEntity
8
dimension
6
CONTINUOUS
62
7
370
0
100
AcDbLine
10
300
20
0.625
11
300
21
16.25
0
LINE
5
196
100
AcDbEntity
8
dimension
6
CONTINUOUS
62
7
370
0
100
AcDbLine
10
346
20
0.625
11
346
21
16.25
0
ENDBLK
5
98
330
96
100
AcDbEntity
8
0
100
AcDbBlockEnd
0
BLOCK
5
9A
330
99
100
AcDbEntity
8
0
100
AcDbBlockBegin
2
*D25
70
1
10
0
20
0
3
*D25
1

0
LINE
5
197
100
AcDbEntity
8
dimension
6
CONTINUOUS
62
7
370
0
100
AcDbLine
10
160
20
157
11
160
21
100
0
SOLID
5
198
100
AcDbEntity
8
dimension
6
CONTINUOUS
62
7
370
0
100
AcDbTrace
10
160
20
157
30
0
11
160.416284658
21
154.5
31
0
12
159.583715342
22
154.5
32
0
13
159.583715342
23
154.5
33
0
0
SOLID
5
199
100
AcDbEntity
8
dimension
6
CONTINUOUS
62
7
370
0
100
AcDbTrace
10
160
20
100
30
0
11
159.583715342
21
102.5
31
0
12
160.416284658
22
102.5
32
0
13
160.416284658
23
102.5
33
0
0
MTEXT
5
19A
100
AcDbEntity
8
dimension
6
CONTINUOUS
62
7
370
0
100
AcDbMText
10
158.125
20
128.5
30
0
40
2.5
41
3.05555555556
71
5
72
1
1
57
7
standard
210
0
220
0
230
1
50
90
73
2
44
1
0
LINE
5
19B
100
AcDbEntity
8
dimension
6
CONTINUOUS
62
7
370
0
100
AcDbLine
10
135.625
20
157
11
161.25
21
157
0
LINE
5
19C
100
AcDbEntity
8
dimension
6
CONTINUOUS
62
7
370
0
100
AcDbLine
10
135.625
20
100
11
161.25
21
100
0
ENDBLK
5
9B
330
99
100
AcDbEntity
8
0
100
AcDbBlockEnd
0
BLOCK
5
9D
330
9C
100
AcDbEntity
8
0
100
AcDbBlockBegin
2
*D54
70
1
10
0
20
0
3
*D54
1

0
LINE
5
19D
100
AcDbEntity
8
dimension
6
CONTINUOUS
62
7
370
0
100
AcDbLine
10
-30
20
244
11
-30
21
2
0
SOLID
5
19E
100
AcDbEntity
8
dimension
6
CONTINUOUS
62
7
370
0
100
AcDbTrace
10
-30
20
244
30
0
11
-29.5837153422
21
241.5
31
0
12
-30.4162846578
22
241.5
32
0
13
-30.4162846578
23
241.5
33
0
0
SOLID
5
19F
100
AcDbEntity
8
dimension
6
CONTINUOUS
62
7
370
0
100
AcDbTrace
10
-30
20
2
30
0
11
-30.4162846578
21
4.5
31
0
12
-29.5837153422
22
4.5
32
0
13
-29.5837153422
23
4.5
33
0
0
MTEXT
5
1A0
100
AcDbEntity
8
dimension
6
CONTINUOUS
62
7
370
0
100
AcDbMText
10
-31.875
20
123
30
0
40
2.5
41
5.27777777778
71
5
72
1
1
242
7
standard
210
0
220
0
230
1
50
90
73
2
44
1
0
LINE
5
1A1
100
AcDbEntity
8
dimension
6
CONTINUOUS
62
7
370
0
100
AcDbLine
10
7.375
20
244
11
-31.25
21
244
0
LINE
5
1A2
100
AcDbEntity
8
dimension
6
CONTINUOUS
62
7
370
0
100
AcDbLine
10
8.375
20
2
11
-31.25
21
2
0
ENDBLK
5
9E
330
9C
100
AcDbEntity
8
0
100
AcDbBlockEnd
0
BLOCK
5
A0
330
9F
100
AcDbEntity
8
0
100
AcDbBlockBegin
2
*D17
70
1
10
0
20
0
3
*D17
1

0
LINE
5
1A3
100
AcDbEntity
8
0
6
CONTINUOUS
62
7
370
0
100
AcDbLine
10
-10
20
62.5
11
-10
21
7.5
0
SOLID
5
1A4
100
AcDbEntity
8
0
6
CONTINUOUS
62
7
370
0
100
AcDbTrace
10
-10
20
62.5
30
0
11
-9.58371534223
21
60
31
0
12
-10.4162846578
22
60
32
0
13
-10.4162846578
23
60
33
0
0
SOLID
5
1A5
100
AcDbEntity
8
0
6
CONTINUOUS
62
7
370
0
100
AcDbTrace
10
-10
20
7.5
30
0
11
-10.4162846578
21
10
31
0
12
-9.58371534223
22
10
32
0
13
-9.58371534223
23
10
33
0
0
MTEXT
5
1A6
100
AcDbEntity
8
0
6
CONTINUOUS
62
7
370
0
100
AcDbMText
10
-11.875
20
35
30
0
40
2.5
41
3.05555555556
71
5
72
1
1
55
7
standard
210
0
220
0
230
1
50
90
73
2
44
1
0
LINE
5
1A7
100
AcDbEntity
8
0
6
CONTINUOUS
62
7
370
0
100
AcDbLine
10
3.875
20
62.5
11
-11.25
21
62.5
0
LINE
5
1A8
100
AcDbEntity
8
0
6
CONTINUOUS
62
7
370
0
100
AcDbLine
10
3.375
20
7.5
11
-11.25
21
7.5
0
ENDBLK
5
A1
330
9F
100
AcDbEntity
8
0
100
AcDbBlockEnd
0
BLOCK
5
A3
330
A2
100
AcDbEntity
8
0
100
AcDbBlockBegin
2
*D32
70
1
10
0
20
0
3
*D32
1

0
LINE
5
1A9
100
AcDbEntity
8
dimension
6
CONTINUOUS
62
7
370
0
100
AcDbLine
10
9
20
-6
11
56
21
-6
0
SOLID
5
1AA
100
AcDbEntity
8
dimension
6
CONTINUOUS
62
7
370
0
100
AcDbTrace
10
9
20
-6
30
0
11
11.5
21
-5.58371534223
31
0
12
11.5
22
-6.41628465777
32
0
13
11.5
23
-6.41628465777
33
0
0
SOLID
5
1AB
100
AcDbEntity
8
dimension
6
CONTINUOUS
62
7
370
0
100
AcDbTrace
10
56
20
-6
30
0
11
53.5
21
-6.41628465777
31
0
12
53.5
22
-5.58371534223
32
0
13
53.5
23
-5.58371534223
33
0
0
MTEXT
5
1AC
100
AcDbEntity
8
dimension
6
CONTINUOUS
62
7
370
0
100
AcDbMText
10
32.5
20
-4.125
30
0
40
2.5
41
3.33333333333
71
5
72
1
1
47
7
standard
210
0
220
0
230
1
50
0
73
2
44
1
0
LINE
5
1AD
100
AcDbEntity
8
dimension
6
CONTINUOUS
62
7
370
0
100
AcDbLine
10
9
20
1.375
11
9
21
-7.25
0
LINE
5
1AE
100
AcDbEntity
8
dimension
6
CONTINUOUS
62
7
370
0
100
AcDbLine
10
56
20
1.375
11
56
21
-7.25
0
ENDBLK
5
A4
330
A2
100
AcDbEntity
8
0
100
AcDbBlockEnd
0
BLOCK
5
A6
330
A5
100
AcDbEntity
8
0
100
AcDbBlockBegin
2
*D37
70
1
10
0
20
0
3
*D37
1

0
LINE
5
1AF
100
AcDbEntity
8
dimension
6
CONTINUOUS
62
7
370
0
100
AcDbLine
10
11
20
83
11
-5
21
83
0
SOLID
5
1B0
100
AcDbEntity
8
dimension
6
CONTINUOUS
62
7
370
0
100
AcDbTrace
10
6
20
83
30
0
11
8.5
21
83.4162846578
31
0
12
8.5
22
82.5837153422
32
0
13
8.5
23
82.5837153422
33
0
0
SOLID
5
1B1
100
AcDbEntity
8
dimension
6
CONTINUOUS
62
7
370
0
100
AcDbTrace
10
9.86076131526e-32
20
83
30
0
11
-2.5
21
82.5837153422
31
0
12
-2.5
22
83.4162846578
32
0
13
-2.5
23
83.4162846578
33
0
0
MTEXT
5
1B2
100
AcDbEntity
8
dimension
6
CONTINUOUS
62
7
370
0
100
AcDbMText
10
3
20
84.875
30
0
40
2.5
41
1.11111111111
71
5
72
1
1
6
7
standard
210
0
220
0
230
1
50
360
73
2
44
1
0
LINE
5
1B3
100
AcDbEntity
8
dimension
6
CONTINUOUS
62
7
370
0
100
AcDbLine
10
6
20
73.625
11
6
21
84.25
0
LINE
5
1B4
100
AcDbEntity
8
dimension
6
CONTINUOUS
62
7
370
0
100
AcDbLine
10
-1.00507665605e-16
20
77.625
11
-2.0101533121e-16
21
84.25
0
ENDBLK
5
A7
330
A5
100
AcDbEntity
8
0
100
AcDbBlockEnd
0
BLOCK
5
A9
330
A8
100
AcDbEntity
8
0
100
AcDbBlockBegin
2
*D15
70
1
10
0
20
0
3
*D15
1

0
LINE
5
1B5
100
AcDbEntity
8
dimension
6
CONTINUOUS
62
7
370
0
100
AcDbLine
10
15
20
225
11
8
21
225
0
SOLID
5
1B6
100
AcDbEntity
8
dimension
6
CONTINUOUS
62
7
370
0
100
AcDbTrace
10
15
20
225
30
0
11
12.5
21
224.583715342
31
0
12
12.5
22
225.416284658
32
0
13
12.5
23
225.416284658
33
0
0
SOLID
5
1B7
100
AcDbEntity
8
dimension
6
CONTINUOUS
62
7
370
0
100
AcDbTrace
10
8
20
225
30
0
11
10.5
21
225.416284658
31
0
12
10.5
22
224.583715342
32
0
13
10.5
23
224.583715342
33
0
0
MTEXT
5
1B8
100
AcDbEntity
8
dimension
6
CONTINUOUS
62
7
370
0
100
AcDbMText
10
11.5
20
226.875
30
0
40
2.5
41
1.11111111111
71
5
72
1
1
7
7
standard
210
0
220
0
230
1
50
360
73
2
44
1
0
LINE
5
1B9
100
AcDbEntity
8
dimension
6
CONTINUOUS
62
7
370
0
100
AcDbLine
10
15
20
220.625
11
15
21
226.25
0
LINE
5
1BA
100
AcDbEntity
8
dimension
6
CONTINUOUS
62
7
370
0
100
AcDbLine
10
8
20
220.625
11
8
21
226.25
0
ENDBLK
5
AA
330
A8
100
AcDbEntity
8
0
100
AcDbBlockEnd
0
BLOCK
5
AC
330
AB
100
AcDbEntity
8
0
100
AcDbBlockBegin
2
*D34
70
1
10
0
20
0
3
*D34
1

0
LINE
5
1BB
100
AcDbEntity
8
dimension
6
CONTINUOUS
62
7
370
0
100
AcDbLine
10
41
20
73
11
41
21
14
0
SOLID
5
1BC
100
AcDbEntity
8
dimension
6
CONTINUOUS
62
7
370
0
100
AcDbTrace
10
41
20
73
30
0
11
41.4162846578
21
70.5
31
0
12
40.5837153422
22
70.5
32
0
13
40.5837153422
23
70.5
33
0
0
SOLID
5
1BD
100
AcDbEntity
8
dimension
6
CONTINUOUS
62
7
370
0
100
AcDbTrace
10
41
20
14
30
0
11
40.5837153422
21
16.5
31
0
12
41.4162846578
22
16.5
32
0
13
41.4162846578
23
16.5
33
0
0
MTEXT
5
1BE
100
AcDbEntity
8
dimension
6
CONTINUOUS
62
7
370
0
100
AcDbMText
10
39.125
20
43.5
30
0
40
2.5
41
3.05555555556
71
5
72
1
1
59
7
standard
210
0
220
0
230
1
50
90
73
2
44
1
0
LINE
5
1BF
100
AcDbEntity
8
dimension
6
CONTINUOUS
62
7
370
0
100
AcDbLine
10
51.375
20
73
11
39.75
21
73
0
LINE
5
1C0
100
AcDbEntity
8
dimension
6
CONTINUOUS
62
7
370
0
100
AcDbLine
10
51.375
20
14
11
39.75
21
14
0
ENDBLK
5
AD
330
AB
100
AcDbEntity
8
0
100
AcDbBlockEnd
0
BLOCK
5
AF
330
AE
100
AcDbEntity
8
0
100
AcDbBlockBegin
2
*D41
70
1
10
0
20
0
3
*D41
1

0
LINE
5
1C1
100
AcDbEntity
8
dimension
6
CONTINUOUS
62
7
370
0
100
AcDbLine
10
337
20
0
11
337
21
62
0
SOLID
5
1C2
100
AcDbEntity
8
dimension
6
CONTINUOUS
62
7
370
0
100
AcDbTrace
10
337
20
0
30
0
11
336.583715342
21
2.5
31
0
12
337.416284658
22
2.5
32
0
13
337.416284658
23
2.5
33
0
0
SOLID
5
1C3
100
AcDbEntity
8
dimension
6
CONTINUOUS
62
7
370
0
100
AcDbTrace
10
337
20
62
30
0
11
337.416284658
21
59.5
31
0
12
336.583715342
22
59.5
32
0
13
336.583715342
23
59.5
33
0
0
MTEXT
5
1C4
100
AcDbEntity
8
dimension
6
CONTINUOUS
62
7
370
0
100
AcDbMText
10
335.125
20
31
30
0
40
2.5
41
3.05555555556
71
5
72
1
1
62
7
standard
210
0
220
0
230
1
50
90
73
2
44
1
0
LINE
5
1C5
100
AcDbEntity
8
dimension
6
CONTINUOUS
62
7
370
0
100
AcDbLine
10
300.625
20
0
11
338.25
21
0
0
LINE
5
1C6
100
AcDbEntity
8
dimension
6
CONTINUOUS
62
7
370
0
100
AcDbLine
10
300.625
20
62
11
338.25
21
62
0
ENDBLK
5
B0
330
AE
100
AcDbEntity
8
0
100
AcDbBlockEnd
0
BLOCK
5
B2
330
B1
100
AcDbEntity
8
0
100
AcDbBlockBegin
2
*D13
70
1
10
0
20
0
3
*D13
1

0
LINE
5
1C7
100
AcDbEntity
8
dimension
6
CONTINUOUS
62
7
370
0
100
AcDbLine
10
-10
20
175
11
-10
21
77
0
SOLID
5
1C8
100
AcDbEntity
8
dimension
6
CONTINUOUS
62
7
370
0
100
AcDbTrace
10
-10
20
175
30
0
11
-9.58371534223
21
172.5
31
0
12
-10.4162846578
22
172.5
32
0
13
-10.4162846578
23
172.5
33
0
0
SOLID
5
1C9
100
AcDbEntity
8
dimension
6
CONTINUOUS
62
7
370
0
100
AcDbTrace
10
-10
20
77
30
0
11
-10.4162846578
21
79.5
31
0
12
-9.58371534223
22
79.5
32
0
13
-9.58371534223
23
79.5
33
0
0
MTEXT
5
1CA
100
AcDbEntity
8
dimension
6
CONTINUOUS
62
7
370
0
100
AcDbMText
10
-11.875
20
126
30
0
40
2.5
41
3.05555555556
71
5
72
1
1
98
7
standard
210
0
220
0
230
1
50
90
73
2
44
1
0
LINE
5
1CB
100
AcDbEntity
8
dimension
6
CONTINUOUS
62
7
370
0
100
AcDbLine
10
-0.625
20
175
11
-11.25
21
175
0
LINE
5
1CC
100
AcDbEntity
8
dimension
6
CONTINUOUS
62
7
370
0
100
AcDbLine
10
-0.625
20
77
11
-11.25
21
77
0
ENDBLK
5
B3
330
B1
100
AcDbEntity
8
0
100
AcDbBlockEnd
0
BLOCK
5
B5
330
B4
100
AcDbEntity
8
0
100
AcDbBlockBegin
2
*D9
70
1
10
0
20
0
3
*D9
1

0
LINE
5
1CD
100
AcDbEntity
8
dimension
6
CONTINUOUS
62
7
370
0
100
AcDbLine
10
16
20
195
11
16
21
180
0
SOLID
5
1CE
100
AcDbEntity
8
dimension
6
CONTINUOUS
62
7
370
0
100
AcDbTrace
10
16
20
190
30
0
11
15.5837153422
21
192.5
31
0
12
16.4162846578
22
192.5
32
0
13
16.4162846578
23
192.5
33
0
0
SOLID
5
1CF
100
AcDbEntity
8
dimension
6
CONTINUOUS
62
7
370
0
100
AcDbTrace
10
16
20
185
30
0
11
16.4162846578
21
182.5
31
0
12
15.5837153422
22
182.5
32
0
13
15.5837153422
23
182.5
33
0
0
MTEXT
5
1D0
100
AcDbEntity
8
dimension
6
CONTINUOUS
62
7
370
0
100
AcDbMText
10
14.125
20
187.5
30
0
40
2.5
41
1.11111111111
71
5
72
1
1
5
7
standard
210
0
220
0
230
1
50
90
73
2
44
1
0
LINE
5
1D1
100
AcDbEntity
8
dimension
6
CONTINUOUS
62
7
370
0
100
AcDbLine
10
7.625
20
190
11
17.25
21
190
0
LINE
5
1D2
100
AcDbEntity
8
dimension
6
CONTINUOUS
62
7
370
0
100
AcDbLine
10
7.625
20
185
11
17.25
21
185
0
ENDBLK
5
B6
330
B4
100
AcDbEntity
8
0
100
AcDbBlockEnd
0
BLOCK
5
B8
330
B7
100
AcDbEntity
8
0
100
AcDbBlockBegin
2
*D51
70
1
10
0
20
0
3
*D51
1

0
LINE
5
1D3
100
AcDbEntity
8
dimension
6
CONTINUOUS
62
7
370
0
100
AcDbLine
10
-20
20
244
11
-20
21
187.5
0
SOLID
5
1D4
100
AcDbEntity
8
dimension
6
CONTINUOUS
62
7
370
0
100
AcDbTrace
10
-20
20
244
30
0
11
-19.5837153422
21
241.5
31
0
12
-20.4162846578
22
241.5
32
0
13
-20.4162846578
23
241.5
33
0
0
SOLID
5
1D5
100
AcDbEntity
8
dimension
6
CONTINUOUS
62
7
370
0
100
AcDbTrace
10
-20
20
187.5
30
0
11
-20.4162846578
21
190
31
0
12
-19.5837153422
22
190
32
0
13
-19.5837153422
23
190
33
0
0
MTEXT
5
1D6
100
AcDbEntity
8
dimension
6
CONTINUOUS
62
7
370
0
100
AcDbMText
10
-21.875
20
215.75
30
0
40
2.5
41
5.83333333333
71
5
72
1
1
56.5
7
standard
210
0
220
0
230
1
50
90
73
2
44
1
0
LINE
5
1D7
100
AcDbEntity
8
dimension
6
CONTINUOUS
62
7
370
0
100
AcDbLine
10
7.375
20
244
11
-21.25
21
244
0
LINE
5
1D8
100
AcDbEntity
8
dimension
6
CONTINUOUS
62
7
370
0
100
AcDbLine
10
5.375
20
187.5
11
-21.25
21
187.5
0
ENDBLK
5
B9
330
B7
100
AcDbEntity
8
0
100
AcDbBlockEnd
0
BLOCK
5
BB
330
BA
100
AcDbEntity
8
0
100
AcDbBlockBegin
2
*D3
70
1
10
0
20
0
3
*D3
1

0
LINE
5
1D9
100
AcDbEntity
8
dimension
6
CONTINUOUS
62
7
370
0
100
AcDbLine
10
16
20
70
11
16
21
55
0
SOLID
5
1DA
100
AcDbEntity
8
dimension
6
CONTINUOUS
62
7
370
0
100
AcDbTrace
10
16
20
65
30
0
11
15.5837153422
21
67.5
31
0
12
16.4162846578
22
67.5
32
0
13
16.4162846578
23
67.5
33
0
0
SOLID
5
1DB
100
AcDbEntity
8
dimension
6
CONTINUOUS
62
7
370
0
100
AcDbTrace
10
16
20
60
30
0
11
16.4162846578
21
57.5
31
0
12
15.5837153422
22
57.5
32
0
13
15.5837153422
23
57.5
33
0
0
MTEXT
5
1DC
100
AcDbEntity
8
dimension
6
CONTINUOUS
62
7
370
0
100
AcDbMText
10
14.125
20
62.5
30
0
40
2.5
41
1.11111111111
71
5
72
1
1
5
7
standard
210
0
220
0
230
1
50
90
73
2
44
1
0
LINE
5
1DD
100
AcDbEntity
8
dimension
6
CONTINUOUS
62
7
370
0
100
AcDbLine
10
7.625
20
65
11
17.25
21
65
0
LINE
5
1DE
100
AcDbEntity
8
dimension
6
CONTINUOUS
62
7
370
0
100
AcDbLine
10
7.625
20
60
11
17.25
21
60
0
ENDBLK
5
BC
330
BA
100
AcDbEntity
8
0
100
AcDbBlockEnd
0
BLOCK
5
BE
330
BD
100
AcDbEntity
8
0
100
AcDbBlockBegin
2
*D30
70
1
10
0
20
0
3
*D30
1

0
LINE
5
1DF
100
AcDbEntity
8
dimension
6
CONTINUOUS
62
7
370
0
100
AcDbLine
10
56
20
-6
11
94
21
-6
0
SOLID
5
1E0
100
AcDbEntity
8
dimension
6
CONTINUOUS
62
7
370
0
100
AcDbTrace
10
56
20
-6
30
0
11
58.5
21
-5.58371534223
31
0
12
58.5
22
-6.41628465777
32
0
13
58.5
23
-6.41628465777
33
0
0
SOLID
5
1E1
100
AcDbEntity
8
dimension
6
CONTINUOUS
62
7
370
0
100
AcDbTrace
10
94
20
-6
30
0
11
91.5
21
-6.41628465777
31
0
12
91.5
22
-5.58371534223
32
0
13
91.5
23
-5.58371534223
33
0
0
MTEXT
5
1E2
100
AcDbEntity
8
dimension
6
CONTINUOUS
62
7
370
0
100
AcDbMText
10
75
20
-4.125
30
0
40
2.5
41
3.05555555556
71
5
72
1
1
38
7
standard
210
0
220
0
230
1
50
0
73
2
44
1
0
LINE
5
1E3
100
AcDbEntity
8
dimension
6
CONTINUOUS
62
7
370
0
100
AcDbLine
10
56
20
1.375
11
56
21
-7.25
0
LINE
5
1E4
100
AcDbEntity
8
dimension
6
CONTINUOUS
62
7
370
0
100
AcDbLine
10
94
20
1.375
11
94
21
-7.25
0
ENDBLK
5
BF
330
BD
100
AcDbEntity
8
0
100
AcDbBlockEnd
0
BLOCK
5
C1
330
C0
100
AcDbEntity
8
0
100
AcDbBlockBegin
2
*D29
70
1
10
0
20
0
3
*D29
1

0
LINE
5
1E5
100
AcDbEntity
8
dimension
6
CONTINUOUS
62
7
370
0
100
AcDbLine
10
180
20
244
11
180
21
100
0
SOLID
5
1E6
100
AcDbEntity
8
dimension
6
CONTINUOUS
62
7
370
0
100
AcDbTrace
10
180
20
244
30
0
11
180.416284658
21
241.5
31
0
12
179.583715342
22
241.5
32
0
13
179.583715342
23
241.5
33
0
0
SOLID
5
1E7
100
AcDbEntity
8
dimension
6
CONTINUOUS
62
7
370
0
100
AcDbTrace
10
180
20
100
30
0
11
179.583715342
21
102.5
31
0
12
180.416284658
22
102.5
32
0
13
180.416284658
23
102.5
33
0
0
MTEXT
5
1E8
100
AcDbEntity
8
dimension
6
CONTINUOUS
62
7
370
0
100
AcDbMText
10
178.125
20
172
30
0
40
2.5
41
5
71
5
72
1
1
144
7
standard
210
0
220
0
230
1
50
90
73
2
44
1
0
LINE
5
1E9
100
AcDbEntity
8
dimension
6
CONTINUOUS
62
7
370
0
100
AcDbLine
10
142.625
20
244
11
181.25
21
244
0
LINE
5
1EA
100
AcDbEntity
8
dimension
6
CONTINUOUS
62
7
370
0
100
AcDbLine
10
135.625
20
100
11
181.25
21
100
0
ENDBLK
5
C2
330
C0
100
AcDbEntity
8
0
100
AcDbBlockEnd
0
BLOCK
5
C4
330
C3
100
AcDbEntity
8
0
100
AcDbBlockBegin
2
*D26
70
1
10
0
20
0
3
*D26
1

0
LINE
5
1EB
100
AcDbEntity
8
dimension
6
CONTINUOUS
62
7
370
0
100
AcDbLine
10
-10
20
200
11
-10
21
244
0
SOLID
5
1EC
100
AcDbEntity
8
dimension
6
CONTINUOUS
62
7
370
0
100
AcDbTrace
10
-10
20
200
30
0
11
-10.4162846578
21
202.5
31
0
12
-9.58371534223
22
202.5
32
0
13
-9.58371534223
23
202.5
33
0
0
SOLID
5
1ED
100
AcDbEntity
8
dimension
6
CONTINUOUS
62
7
370
0
100
AcDbTrace
10
-10
20
244
30
0
11
-9.58371534223
21
241.5
31
0
12
-10.4162846578
22
241.5
32
0
13
-10.4162846578
23
241.5
33
0
0
MTEXT
5
1EE
100
AcDbEntity
8
dimension
6
CONTINUOUS
62
7
370
0
100
AcDbMText
10
-11.875
20
222
30
0
40
2.5
41
3.61111111111
71
5
72
1
1
44
7
standard
210
0
220
0
230
1
50
90
73
2
44
1
0
LINE
5
1EF
100
AcDbEntity
8
dimension
6
CONTINUOUS
62
7
370
0
100
AcDbLine
10
-0.625
20
200
11
-11.25
21
200
0
LINE
5
1F0
100
AcDbEntity
8
dimension
6
CONTINUOUS
62
7
370
0
100
AcDbLine
10
7.375
20
244
11
-11.25
21
244
0
ENDBLK
5
C5
330
C3
100
AcDbEntity
8
0
100
AcDbBlockEnd
0
BLOCK
5
C7
330
C6
100
AcDbEntity
8
0
100
AcDbBlockBegin
2
*D45
70
1
10
0
20
0
3
*D45
1

0
LINE
5
1F1
100
AcDbEntity
8
dimension
6
CONTINUOUS
62
7
370
0
100
AcDbLine
10
115
20
14
11
115
21
73
0
SOLID
5
1F2
100
AcDbEntity
8
dimension
6
CONTINUOUS
62
7
370
0
100
AcDbTrace
10
115
20
14
30
0
11
114.583715342
21
16.5
31
0
12
115.416284658
22
16.5
32
0
13
115.416284658
23
16.5
33
0
0
SOLID
5
1F3
100
AcDbEntity
8
dimension
6
CONTINUOUS
62
7
370
0
100
AcDbTrace
10
115
20
73
30
0
11
115.416284658
21
70.5
31
0
12
114.583715342
22
70.5
32
0
13
114.583715342
23
70.5
33
0
0
MTEXT
5
1F4
100
AcDbEntity
8
dimension
6
CONTINUOUS
62
7
370
0
100
AcDbMText
10
113.125
20
43.5
30
0
40
2.5
41
3.05555555556
71
5
72
1
1
59
7
standard
210
0
220
0
230
1
50
90
73
2
44
1
0
LINE
5
1F5
100
AcDbEntity
8
dimension
6
CONTINUOUS
62
7
370
0
100
AcDbLine
10
98.625
20
14
11
116.25
21
14
0
LINE
5
1F6
100
AcDbEntity
8
dimension
6
CONTINUOUS
62
7
370
0
100
AcDbLine
10
98.625
20
73
11
116.25
21
73
0
ENDBLK
5
C8
330
C6
100
AcDbEntity
8
0
100
AcDbBlockEnd
0
BLOCK
5
CA
330
C9
100
AcDbEntity
8
0
100
AcDbBlockBegin
2
*D46
70
1
10
0
20
0
3
*D46
1

0
LINE
5
1F7
100
AcDbEntity
8
dimension
6
CONTINUOUS
62
7
370
0
100
AcDbLine
10
139
20
5
11
155
21
5
0
SOLID
5
1F8
100
AcDbEntity
8
dimension
6
CONTINUOUS
62
7
370
0
100
AcDbTrace
10
144
20
5
30
0
11
141.5
21
4.58371534223
31
0
12
141.5
22
5.41628465777
32
0
13
141.5
23
5.41628465777
33
0
0
SOLID
5
1F9
100
AcDbEntity
8
dimension
6
CONTINUOUS
62
7
370
0
100
AcDbTrace
10
150
20
5
30
0
11
152.5
21
5.41628465777
31
0
12
152.5
22
4.58371534223
32
0
13
152.5
23
4.58371534223
33
0
0
MTEXT
5
1FA
100
AcDbEntity
8
dimension
6
CONTINUOUS
62
7
370
0
100
AcDbMText
10
147
20
6.875
30
0
40
2.5
41
1.11111111111
71
5
72
1
1
6
7
standard
210
0
220
0
230
1
50
0
73
2
44
1
0
LINE
5
1FB
100
AcDbEntity
8
dimension
6
CONTINUOUS
62
7
370
0
100
AcDbLine
10
144
20
13.375
11
144
21
3.75
0
LINE
5
1FC
100
AcDbEntity
8
dimension
6
CONTINUOUS
62
7
370
0
100
AcDbLine
10
150
20
13.375
11
150
21
3.75
0
ENDBLK
5
CB
330
C9
100
AcDbEntity
8
0
100
AcDbBlockEnd
0
BLOCK
5
CD
330
CC
100
AcDbEntity
8
0
100
AcDbBlockBegin
2
*D6
70
1
10
0
20
0
3
*D6
1

0
LINE
5
1FD
100
AcDbEntity
8
dimension
6
CONTINUOUS
62
7
370
0
100
AcDbLine
10
69
20
40
11
81
21
40
0
SOLID
5
1FE
100
AcDbEntity
8
dimension
6
CONTINUOUS
62
7
370
0
100
AcDbTrace
10
69
20
40
30
0
11
71.5
21
40.4162846578
31
0
12
71.5
22
39.5837153422
32
0
13
71.5
23
39.5837153422
33
0
0
SOLID
5
1FF
100
AcDbEntity
8
dimension
6
CONTINUOUS
62
7
370
0
100
AcDbTrace
10
81
20
40
30
0
11
78.5
21
39.5837153422
31
0
12
78.5
22
40.4162846578
32
0
13
78.5
23
40.4162846578
33
0
0
MTEXT
5
200
100
AcDbEntity
8
dimension
6
CONTINUOUS
62
7
370
0
100
AcDbMText
10
75
20
41.875
30
0
40
2.5
41
2.5
71
5
72
1
1
12
7
standard
210
0
220
0
230
1
50
0
73
2
44
1
0
LINE
5
201
100
AcDbEntity
8
dimension
6
CONTINUOUS
62
7
370
0
100
AcDbLine
10
69
20
36.625
11
69
21
41.25
0
LINE
5
202
100
AcDbEntity
8
dimension
6
CONTINUOUS
62
7
370
0
100
AcDbLine
10
81
20
36.625
11
81
21
41.25
0
ENDBLK
5
CE
330
CC
100
AcDbEntity
8
0
100
AcDbBlockEnd
0
BLOCK
5
D0
330
CF
100
AcDbEntity
8
0
100
AcDbBlockBegin
2
*D53
70
1
10
0
20
0
3
*D53
1

0
LINE
5
203
100
AcDbEntity
8
dimension
6
CONTINUOUS
62
7
370
0
100
AcDbLine
10
-20
20
62.5
11
-20
21
2
0
SOLID
5
204
100
AcDbEntity
8
dimension
6
CONTINUOUS
62
7
370
0
100
AcDbTrace
10
-20
20
62.5
30
0
11
-19.5837153422
21
60
31
0
12
-20.4162846578
22
60
32
0
13
-20.4162846578
23
60
33
0
0
SOLID
5
205
100
AcDbEntity
8
dimension
6
CONTINUOUS
62
7
370
0
100
AcDbTrace
10
-20
20
2
30
0
11
-20.4162846578
21
4.5
31
0
12
-19.5837153422
22
4.5
32
0
13
-19.5837153422
23
4.5
33
0
0
MTEXT
5
206
100
AcDbEntity
8
dimension
6
CONTINUOUS
62
7
370
0
100
AcDbMText
10
-21.875
20
32.25
30
0
40
2.5
41
5.83333333333
71
5
72
1
1
60.5
7
standard
210
0
220
0
230
1
50
90
73
2
44
1
0
LINE
5
207
100
AcDbEntity
8
dimension
6
CONTINUOUS
62
7
370
0
100
AcDbLine
10
4.175
20
62.5
11
-21.25
21
62.5
0
LINE
5
208
100
AcDbEntity
8
dimension
6
CONTINUOUS
62
7
370
0
100
AcDbLine
10
8.375
20
2
11
-21.25
21
2
0
ENDBLK
5
D1
330
CF
100
AcDbEntity
8
0
100
AcDbBlockEnd
0
BLOCK
5
D3
330
D2
100
AcDbEntity
8
0
100
AcDbBlockBegin
2
*D1
70
1
10
0
20
0
3
*D1
1

0
LINE
5
209
100
AcDbEntity
8
dimension
6
CONTINUOUS
62
7
370
0
100
AcDbLine
10
6
20
194.7648
11
144
21
194.7648
0
SOLID
5
20A
100
AcDbEntity
8
dimension
6
CONTINUOUS
62
7
370
0
100
AcDbTrace
10
6
20
194.7648
30
0
11
8.5
21
195.181084658
31
0
12
8.5
22
194.348515342
32
0
13
8.5
23
194.348515342
33
0
0
SOLID
5
20B
100
AcDbEntity
8
dimension
6
CONTINUOUS
62
7
370
0
100
AcDbTrace
10
144
20
194.7648
30
0
11
141.5
21
194.348515342
31
0
12
141.5
22
195.181084658
32
0
13
141.5
23
195.181084658
33
0
0
MTEXT
5
20C
100
AcDbEntity
8
dimension
6
CONTINUOUS
62
7
370
0
100
AcDbMText
10
75
20
196.6398
30
0
40
2.5
41
4.44444444444
71
5
72
1
1
138
7
standard
210
0
220
0
230
1
50
0
73
2
44
1
0
LINE
5
20D
100
AcDbEntity
8
dimension
6
CONTINUOUS
62
7
370
0
100
AcDbLine
10
6
20
188.625
11
6
21
196.0148
0
LINE
5
20E
100
AcDbEntity
8
dimension
6
CONTINUOUS
62
7
370
0
100
AcDbLine
10
144
20
188.625
11
144
21
196.0148
0
ENDBLK
5
D4
330
D2
100
AcDbEntity
8
0
100
AcDbBlockEnd
0
BLOCK
5
D6
330
D5
100
AcDbEntity
8
0
100
AcDbBlockBegin
2
*D43
70
1
10
0
20
0
3
*D43
1

0
LINE
5
20F
100
AcDbEntity
8
dimension
6
CONTINUOUS
62
7
370
0
100
AcDbLine
10
145.2
20
29
11
98.8
21
29
0
SOLID
5
210
100
AcDbEntity
8
dimension
6
CONTINUOUS
62
7
370
0
100
AcDbTrace
10
145.2
20
29
30
0
11
142.7
21
28.5837153422
31
0
12
142.7
22
29.4162846578
32
0
13
142.7
23
29.4162846578
33
0
0
SOLID
5
211
100
AcDbEntity
8
dimension
6
CONTINUOUS
62
7
370
0
100
AcDbTrace
10
98.8
20
29
30
0
11
101.3
21
29.4162846578
31
0
12
101.3
22
28.5837153422
32
0
13
101.3
23
28.5837153422
33
0
0
MTEXT
5
212
100
AcDbEntity
8
dimension
6
CONTINUOUS
62
7
370
0
100
AcDbMText
10
122
20
30.875
30
0
40
2.5
41
6.38888888889
71
5
72
1
1
46.4
7
standard
210
0
220
0
230
1
50
360
73
2
44
1
0
LINE
5
213
100
AcDbEntity
8
dimension
6
CONTINUOUS
62
7
370
0
100
AcDbLine
10
145.2
20
20.825
11
145.2
21
30.25
0
LINE
5
214
100
AcDbEntity
8
dimension
6
CONTINUOUS
62
7
370
0
100
AcDbLine
10
98.8
20
20.925
11
98.8
21
30.25
0
ENDBLK
5
D7
330
D5
100
AcDbEntity
8
0
100
AcDbBlockEnd
0
BLOCK
5
D9
330
D8
100
AcDbEntity
8
0
100
AcDbBlockBegin
2
*D23
70
1
10
0
20
0
3
*D23
1

0
LINE
5
215
100
AcDbEntity
8
dimension
6
CONTINUOUS
62
7
370
0
100
AcDbLine
10
140.2
20
29
11
155
21
29
0
SOLID
5
216
100
AcDbEntity
8
dimension
6
CONTINUOUS
62
7
370
0
100
AcDbTrace
10
145.2
20
29
30
0
11
142.7
21
28.5837153422
31
0
12
142.7
22
29.4162846578
32
0
13
142.7
23
29.4162846578
33
0
0
SOLID
5
217
100
AcDbEntity
8
dimension
6
CONTINUOUS
62
7
370
0
100
AcDbTrace
10
150
20
29
30
0
11
152.5
21
29.4162846578
31
0
12
152.5
22
28.5837153422
32
0
13
152.5
23
28.5837153422
33
0
0
MTEXT
5
218
100
AcDbEntity
8
dimension
6
CONTINUOUS
62
7
370
0
100
AcDbMText
10
147.6
20
30.875
30
0
40
2.5
41
4.16666666667
71
5
72
1
1
4.8
7
standard
210
0
220
0
230
1
50
0
73
2
44
1
0
LINE
5
219
100
AcDbEntity
8
dimension
6
CONTINUOUS
62
7
370
0
100
AcDbLine
10
145.2
20
20.825
11
145.2
21
30.25
0
LINE
5
21A
100
AcDbEntity
8
dimension
6
CONTINUOUS
62
7
370
0
100
AcDbLine
10
150
20
20.625
11
150
21
30.25
0
ENDBLK
5
DA
330
D8
100
AcDbEntity
8
0
100
AcDbBlockEnd
0
BLOCK
5
DC
330
DB
100
AcDbEntity
8
0
100
AcDbBlockBegin
2
*D8
70
1
10
0
20
0
3
*D8
1

0
LINE
5
21B
100
AcDbEntity
8
dimension
6
CONTINUOUS
62
7
370
0
100
AcDbLine
10
-10
20
190
11
-10
21
200
0
SOLID
5
21C
100
AcDbEntity
8
dimension
6
CONTINUOUS
62
7
370
0
100
AcDbTrace
10
-10
20
190
30
0
11
-10.4162846578
21
192.5
31
0
12
-9.58371534223
22
192.5
32
0
13
-9.58371534223
23
192.5
33
0
0
SOLID
5
21D
100
AcDbEntity
8
dimension
6
CONTINUOUS
62
7
370
0
100
AcDbTrace
10
-10
20
200
30
0
11
-9.58371534223
21
197.5
31
0
12
-10.4162846578
22
197.5
32
0
13
-10.4162846578
23
197.5
33
0
0
MTEXT
5
21E
100
AcDbEntity
8
dimension
6
CONTINUOUS
62
7
370
0
100
AcDbMText
10
-11.875
20
195
30
0
40
2.5
41
2.5
71
5
72
1
1
10
7
standard
210
0
220
0
230
1
50
90
73
2
44
1
0
LINE
5
21F
100
AcDbEntity
8
dimension
6
CONTINUOUS
62
7
370
0
100
AcDbLine
10
-0.625
20
190
11
-11.25
21
190
0
LINE
5
220
100
AcDbEntity
8
dimension
6
CONTINUOUS
62
7
370
0
100
AcDbLine
10
-0.625
20
200
11
-11.25
21
200
0
ENDBLK
5
DD
330
DB
100
AcDbEntity
8
0
100
AcDbBlockEnd
0
BLOCK
5
DF
330
DE
100
AcDbEntity
8
0
100
AcDbBlockBegin
2
*D22
70
1
10
0
20
0
3
*D22
1

0
LINE
5
221
100
AcDbEntity
8
dimension
6
CONTINUOUS
62
7
370
0
100
AcDbLine
10
0
20
-20
11
150
21
-20
0
SOLID
5
222
100
AcDbEntity
8
dimension
6
CONTINUOUS
62
7
370
0
100
AcDbTrace
10
0
20
-20
30
0
11
2.5
21
-19.5837153422
31
0
12
2.5
22
-20.4162846578
32
0
13
2.5
23
-20.4162846578
33
0
0
SOLID
5
223
100
AcDbEntity
8
dimension
6
CONTINUOUS
62
7
370
0
100
AcDbTrace
10
150
20
-20
30
0
11
147.5
21
-20.4162846578
31
0
12
147.5
22
-19.5837153422
32
0
13
147.5
23
-19.5837153422
33
0
0
MTEXT
5
224
100
AcDbEntity
8
dimension
6
CONTINUOUS
62
7
370
0
100
AcDbMText
10
75
20
-18.125
30
0
40
2.5
41
4.44444444444
71
5
72
1
1
150
7
standard
210
0
220
0
230
1
50
0
73
2
44
1
0
LINE
5
225
100
AcDbEntity
8
dimension
6
CONTINUOUS
62
7
370
0
100
AcDbLine
10
-1.1481063742e-16
20
8.375
11
-2.2962127484e-16
21
-21.25
0
LINE
5
226
100
AcDbEntity
8
dimension
6
CONTINUOUS
62
7
370
0
100
AcDbLine
10
150
20
8.375
11
150
21
-21.25
0
ENDBLK
5
E0
330
DE
100
AcDbEntity
8
0
100
AcDbBlockEnd
0
BLOCK
5
E2
330
E1
100
AcDbEntity
8
0
100
AcDbBlockBegin
2
*D10
70
1
10
0
20
0
3
*D10
1

0
LINE
5
227
100
AcDbEntity
8
dimension
6
CONTINUOUS
62
7
370
0
100
AcDbLine
10
75
20
21
11
75
21
2
0
SOLID
5
228
100
AcDbEntity
8
dimension
6
CONTINUOUS
62
7
370
0
100
AcDbTrace
10
75
20
21
30
0
11
75.4162846578
21
18.5
31
0
12
74.5837153422
22
18.5
32
0
13
74.5837153422
23
18.5
33
0
0
SOLID
5
229
100
AcDbEntity
8
dimension
6
CONTINUOUS
62
7
370
0
100
AcDbTrace
10
75
20
2
30
0
11
74.5837153422
21
4.5
31
0
12
75.4162846578
22
4.5
32
0
13
75.4162846578
23
4.5
33
0
0
MTEXT
5
22A
100
AcDbEntity
8
dimension
6
CONTINUOUS
62
7
370
0
100
AcDbMText
10
73.125
20
11.5
30
0
40
2.5
41
2.5
71
5
72
1
1
19
7
standard
210
0
220
0
230
1
50
90
73
2
44
1
0
LINE
5
22B
100
AcDbEntity
8
dimension
6
CONTINUOUS
62
7
370
0
100
AcDbLine
10
56.625
20
21
11
76.25
21
21
0
LINE
5
22C
100
AcDbEntity
8
dimension
6
CONTINUOUS
62
7
370
0
100
AcDbLine
10
56.625
20
2
11
76.25
21
2
0
ENDBLK
5
E3
330
E1
100
AcDbEntity
8
0
100
AcDbBlockEnd
0
BLOCK
5
E5
330
E4
100
AcDbEntity
8
0
100
AcDbBlockBegin
2
*D19
70
1
10
0
20
0
3
*D19
1

0
LINE
5
22D
100
AcDbEntity
8
dimension
6
CONTINUOUS
62
7
370
0
100
AcDbLine
10
141
20
-13
11
150
21
-13
0
SOLID
5
22E
100
AcDbEntity
8
dimension
6
CONTINUOUS
62
7
370
0
100
AcDbTrace
10
141
20
-13
30
0
11
143.5
21
-12.5837153422
31
0
12
143.5
22
-13.4162846578
32
0
13
143.5
23
-13.4162846578
33
0
0
SOLID
5
22F
100
AcDbEntity
8
dimension
6
CONTINUOUS
62
7
370
0
100
AcDbTrace
10
150
20
-13
30
0
11
147.5
21
-13.4162846578
31
0
12
147.5
22
-12.5837153422
32
0
13
147.5
23
-12.5837153422
33
0
0
MTEXT
5
230
100
AcDbEntity
8
dimension
6
CONTINUOUS
62
7
370
0
100
AcDbMText
10
145.5
20
-11.125
30
0
40
2.5
41
1.11111111111
71
5
72
1
1
9
7
standard
210
0
220
0
230
1
50
0
73
2
44
1
0
LINE
5
231
100
AcDbEntity
8
dimension
6
CONTINUOUS
62
7
370
0
100
AcDbLine
10
141
20
1.375
11
141
21
-14.25
0
LINE
5
232
100
AcDbEntity
8
dimension
6
CONTINUOUS
62
7
370
0
100
AcDbLine
10
150
20
6.875
11
150
21
-14.25
0
ENDBLK
5
E6
330
E4
100
AcDbEntity
8
0
100
AcDbBlockEnd
0
BLOCK
5
E8
330
E7
100
AcDbEntity
8
0
100
AcDbBlockBegin
2
*D38
70
1
10
0
20
0
3
*D38
1

0
LINE
5
233
100
AcDbEntity
8
dimension
6
CONTINUOUS
62
7
370
0
100
AcDbLine
10
312
20
0
11
312
21
51
0
SOLID
5
234
100
AcDbEntity
8
dimension
6
CONTINUOUS
62
7
370
0
100
AcDbTrace
10
312
20
0
30
0
11
311.583715342
21
2.5
31
0
12
312.416284658
22
2.5
32
0
13
312.416284658
23
2.5
33
0
0
SOLID
5
235
100
AcDbEntity
8
dimension
6
CONTINUOUS
62
7
370
0
100
AcDbTrace
10
312
20
51
30
0
11
312.416284658
21
48.5
31
0
12
311.583715342
22
48.5
32
0
13
311.583715342
23
48.5
33
0
0
MTEXT
5
236
100
AcDbEntity
8
dimension
6
CONTINUOUS
62
7
370
0
100
AcDbMText
10
310.125
20
25.5
30
0
40
2.5
41
2.5
71
5
72
1
1
51
7
standard
210
0
220
0
230
1
50
90
73
2
44
1
0
LINE
5
237
100
AcDbEntity
8
dimension
6
CONTINUOUS
62
7
370
0
100
AcDbLine
10
321.375
20
7.65404249467e-17
11
310.75
21
1.53080849893e-16
0
LINE
5
238
100
AcDbEntity
8
dimension
6
CONTINUOUS
62
7
370
0
100
AcDbLine
10
321.375
20
51
11
310.75
21
51
0
ENDBLK
5
E9
330
E7
100
AcDbEntity
8
0
100
AcDbBlockEnd
0
BLOCK
5
EB
330
EA
100
AcDbEntity
8
0
100
AcDbBlockBegin
2
*D18
70
1
10
0
20
0
3
*D18
1

0
LINE
5
239
100
AcDbEntity
8
dimension
6
CONTINUOUS
62
7
370
0
100
AcDbLine
10
0
20
-13
11
9
21
-13
0
SOLID
5
23A
100
AcDbEntity
8
dimension
6
CONTINUOUS
62
7
370
0
100
AcDbTrace
10
0
20
-13
30
0
11
2.5
21
-12.5837153422
31
0
12
2.5
22
-13.4162846578
32
0
13
2.5
23
-13.4162846578
33
0
0
SOLID
5
23B
100
AcDbEntity
8
dimension
6
CONTINUOUS
62
7
370
0
100
AcDbTrace
10
9
20
-13
30
0
11
6.5
21
-13.4162846578
31
0
12
6.5
22
-12.5837153422
32
0
13
6.5
23
-12.5837153422
33
0
0
MTEXT
5
23C
100
AcDbEntity
8
dimension
6
CONTINUOUS
62
7
370
0
100
AcDbMText
10
4.5
20
-11.125
30
0
40
2.5
41
1.11111111111
71
5
72
1
1
9
7
standard
210
0
220
0
230
1
50
0
73
2
44
1
0
LINE
5
23D
100
AcDbEntity
8
dimension
6
CONTINUOUS
62
7
370
0
100
AcDbLine
10
-8.70550618045e-17
20
6.875
11
-2.2962127484e-16
21
-14.25
0
LINE
5
23E
100
AcDbEntity
8
dimension
6
CONTINUOUS
62
7
370
0
100
AcDbLine
10
9
20
1.375
11
9
21
-14.25
0
ENDBLK
5
EC
330
EA
100
AcDbEntity
8
0
100
AcDbBlockEnd
0
BLOCK
5
EE
330
ED
100
AcDbEntity
8
0
100
AcDbBlockBegin
2
*D48
70
1
10
0
20
0
3
*D48
1

0
LINE
5
23F
100
AcDbEntity
8
dimension
6
CONTINUOUS
62
7
370
0
100
AcDbLine
10
136
20
14
11
136
21
2
0
SOLID
5
240
100
AcDbEntity
8
dimension
6
CONTINUOUS
62
7
370
0
100
AcDbTrace
10
136
20
14
30
0
11
136.416284658
21
11.5
31
0
12
135.583715342
22
11.5
32
0
13
135.583715342
23
11.5
33
0
0
SOLID
5
241
100
AcDbEntity
8
dimension
6
CONTINUOUS
62
7
370
0
100
AcDbTrace
10
136
20
2
30
0
11
135.583715342
21
4.5
31
0
12
136.416284658
22
4.5
32
0
13
136.416284658
23
4.5
33
0
0
MTEXT
5
242
100
AcDbEntity
8
dimension
6
CONTINUOUS
62
7
370
0
100
AcDbMText
10
134.125
20
8
30
0
40
2.5
41
2.5
71
5
72
1
1
12
7
standard
210
0
220
0
230
1
50
90
73
2
44
1
0
LINE
5
243
100
AcDbEntity
8
dimension
6
CONTINUOUS
62
7
370
0
100
AcDbLine
10
143.375
20
14
11
134.75
21
14
0
LINE
5
244
100
AcDbEntity
8
dimension
6
CONTINUOUS
62
7
370
0
100
AcDbLine
10
140.375
20
2
11
134.75
21
2
0
ENDBLK
5
EF
330
ED
100
AcDbEntity
8
0
100
AcDbBlockEnd
0
BLOCK
5
F1
330
F0
100
AcDbEntity
8
0
100
AcDbBlockBegin
2
SSR
70
0
10
0
20
0
3
SSR
1

0
ARC
5
245
100
AcDbEntity
8
ssr
6
ByLayer
62
256
370
-1
100
AcDbCircle
10
0
20
22
40
2
100
AcDbArc
50
180
51
0
0
ARC
5
246
100
AcDbEntity
8
ssr
6
ByLayer
62
256
370
-1
100
AcDbCircle
10
0
20
25
40
2
100
AcDbArc
50
0
51
180
0
LINE
5
247
100
AcDbEntity
8
ssr
6
ByLayer
62
256
370
-1
100
AcDbLine
10
-2
20
25
11
-2
21
22
0
LINE
5
248
100
AcDbEntity
8
ssr
6
ByLayer
62
256
370
-1
100
AcDbLine
10
2
20
25
11
2
21
22
0
CIRCLE
5
249
100
AcDbEntity
8
ssr
6
ByLayer
62
256
370
-1
100
AcDbCircle
10
0
20
-24
40
2
0
LINE
5
24A
100
AcDbEntity
8
ssr
6
ByLayer
62
256
370
-1
100
AcDbLine
10
-23
20
-31
11
23
21
-31
0
LINE
5
24B
100
AcDbEntity
8
ssr
6
ByLayer
62
256
370
-1
100
AcDbLine
10
23
20
-31
11
23
21
31
0
LINE
5
24C
100
AcDbEntity
8
ssr
6
ByLayer
62
256
370
-1
100
AcDbLine
10
23
20
31
11
-23
21
31
0
LINE
5
24D
100
AcDbEntity
8
ssr
6
ByLayer
62
256
370
-1
100
AcDbLine
10
-23
20
31
11
-23
21
-31
0
TEXT
5
24E
100
AcDbEntity
8
text
6
ByLayer
62
256
370
-1
100
AcDbText
10
-16
20
-23
30
0
40
3
1
(-)
50
0
41
1
51
0
7
standard
71
0
210
0
220
0
230
1
100
AcDbText
0
TEXT
5
24F
100
AcDbEntity
8
text
6
ByLayer
62
256
370
-1
100
AcDbText
10
13
20
-23
30
0
40
3
1
(+)
50
0
41
1
51
0
7
standard
71
0
210
0
220
0
230
1
100
AcDbText
0
TEXT
5
250
100
AcDbEntity
8
text
6
ByLayer
62
256
370
-1
100
AcDbText
10
-16
20
19
30
0
40
3
1
(~)
50
0
41
1
51
0
7
standard
71
0
210
0
220
0
230
1
100
AcDbText
0
TEXT
5
251
100
AcDbEntity
8
text
6
ByLayer
62
256
370
-1
100
AcDbText
10
14
20
19
30
0
40
3
1
(~)
50
0
41
1
51
0
7
standard
71
0
210
0
220
0
230
1
100
AcDbText
0
ENDBLK
5
F2
330
F0
100
AcDbEntity
8
0
100
AcDbBlockEnd
0
BLOCK
5
F4
330
F3
100
AcDbEntity
8
0
100
AcDbBlockBegin
2
SSRHOLES
70
0
10
0
20
0
3
SSRHOLES
1

0
CIRCLE
5
252
100
AcDbEntity
8
plate
6
ByLayer
62
256
370
-1
100
AcDbCircle
10
0
20
0
40
1.5
0
CIRCLE
5
253
100
AcDbEntity
8
plate
6
ByLayer
62
256
370
-1
100
AcDbCircle
10
0
20
48
40
1.5
0
DIMENSION
5
254
100
AcDbEntity
8
dimension
6
ByLayer
62
256
370
-1
100
AcDbDimension
10
-5
20
47
30
0
11
-6.875
21
24
31
0
70
32
71
5
3
Standard
53
0
210
0
220
0
230
1
100
AcDbAlignedDimension
13
0
23
0
33
0
14
0
24
48
34
0
50
90
100
AcDbRotatedDimension
0
DIMENSION
5
255
100
AcDbEntity
8
dimension
6
ByLayer
62
256
370
-1
100
AcDbDimension
10
-1.060660172
20
1.06066017178
30
0
11
1.325825215
21
1.32582521472
31
0
70
35
1
M3
71
5
3
Standard
53
0
210
0
220
0
230
1
100
AcDbDiametricDimension
15
1.060660172
25
-1.06066017178
35
0
40
0
0
DIMENSION
5
256
100
AcDbEntity
8
dimension
6
ByLayer
62
256
370
-1
100
AcDbDimension
10
-1.060660172
20
49.0606601718
30
0
11
1.325825215
21
49.3258252147
31
0
70
35
1
M3
71
5
3
Standard
53
0
210
0
220
0
230
1
100
AcDbDiametricDimension
15
1.060660172
25
46.9393398282
35
0
40
0
0
ENDBLK
5
F5
330
F3
100
AcDbEntity
8
0
100
AcDbBlockEnd
0
BLOCK
5
F7
330
F6
100
AcDbEntity
8
0
100
AcDbBlockBegin
2
adapter
70
0
10
0
20
0
3
adapter
1

0
CIRCLE
5
257
100
AcDbEntity
8
0
6
ByLayer
62
256
370
-1
100
AcDbCircle
10
23
20
30
40
3.5
0
CIRCLE
5
258
100
AcDbEntity
8
0
6
ByLayer
62
256
370
-1
100
AcDbCircle
10
23
20
-29
40
3.5
0
CIRCLE
5
259
100
AcDbEntity
8
0
6
ByLayer
62
256
370
-1
100
AcDbCircle
10
-23
20
-29
40
3.5
0
CIRCLE
5
25A
100
AcDbEntity
8
0
6
ByLayer
62
256
370
-1
100
AcDbCircle
10
-23
20
30
40
3.5
0
LINE
5
25B
100
AcDbEntity
8
0
6
ByLayer
62
256
370
-1
100
AcDbLine
10
29
20
35
11
-44
21
35
0
LINE
5
25C
100
AcDbEntity
8
0
6
ByLayer
62
256
370
-1
100
AcDbLine
10
-44
20
35
11
-44
21
-34
0
LINE
5
25D
100
AcDbEntity
8
0
6
ByLayer
62
256
370
-1
100
AcDbLine
10
-44
20
-34
11
29
21
-34
0
LINE
5
25E
100
AcDbEntity
8
0
6
ByLayer
62
256
370
-1
100
AcDbLine
10
29
20
35
11
29
21
-34
0
LINE
5
25F
100
AcDbEntity
8
0
6
ByLayer
62
256
370
-1
100
AcDbLine
10
-23
20
30
11
23
21
-29
0
LINE
5
260
100
AcDbEntity
8
0
6
ByLayer
62
256
370
-1
100
AcDbLine
10
23
20
30
11
-23
21
-29
0
LINE
5
261
100
AcDbEntity
8
0
6
ByLayer
62
256
370
-1
100
AcDbLine
10
29
20
0.5
11
-44
21
0.5
0
ENDBLK
5
F8
330
F6
100
AcDbEntity
8
0
100
AcDbBlockEnd
0
BLOCK
5
FA
330
F9
100
AcDbEntity
8
0
100
AcDbBlockBegin
2
lcsoft
70
0
10
0
20
0
3
lcsoft
1

0
LINE
5
262
100
AcDbEntity
8
0
6
ByLayer
62
256
370
-1
100
AcDbLine
10
23.241
20
-17.272
11
23.241
21
17.272
0
CIRCLE
5
263
100
AcDbEntity
8
0
6
ByLayer
62
256
370
-1
100
AcDbCircle
10
23.241
20
17.272
40
3.5
0
CIRCLE
5
264
100
AcDbEntity
8
0
6
ByLayer
62
256
370
-1
100
AcDbCircle
10
23.241
20
-17.272
40
3.5
0
LINE
5
265
100
AcDbEntity
8
0
6
ByLayer
62
256
370
-1
100
AcDbLine
10
-23.241
20
-17.272
11
23.241
21
-17.272
0
CIRCLE
5
266
100
AcDbEntity
8
0
6
ByLayer
62
256
370
-1
100
AcDbCircle
10
-23.241
20
17.272
40
3.5
0
CIRCLE
5
267
100
AcDbEntity
8
0
6
ByLayer
62
256
370
-1
100
AcDbCircle
10
-23.241
20
-17.272
40
3.5
0
LINE
5
268
100
AcDbEntity
8
0
6
ByLayer
62
256
370
-1
100
AcDbLine
10
-23.241
20
-17.272
11
-23.241
21
17.272
0
LINE
5
269
100
AcDbEntity
8
0
6
ByLayer
62
256
370
-1
100
AcDbLine
10
-23.241
20
17.272
11
23.241
21
17.272
0
LINE
5
26A
100
AcDbEntity
8
0
6
ByLayer
62
256
370
-1
100
AcDbLine
10
-23.241
20
17.272
11
23.241
21
-17.272
0
CIRCLE
5
26B
100
AcDbEntity
8
0
6
ByLayer
62
256
370
-1
100
AcDbCircle
10
-23.241
20
17.272
40
1.5
0
LINE
5
26C
100
AcDbEntity
8
0
6
ByLayer
62
256
370
-1
100
AcDbLine
10
-23.241
20
-17.272
11
23.241
21
17.272
0
CIRCLE
5
26D
100
AcDbEntity
8
0
6
ByLayer
62
256
370
-1
100
AcDbCircle
10
23.241
20
17.272
40
1.5
0
CIRCLE
5
26E
100
AcDbEntity
8
0
6
ByLayer
62
256
370
-1
100
AcDbCircle
10
-23.241
20
-17.272
40
1.5
0
CIRCLE
5
26F
100
AcDbEntity
8
0
6
ByLayer
62
256
370
-1
100
AcDbCircle
10
23.241
20
-17.272
40
1.5
0
ENDBLK
5
FB
330
F9
100
AcDbEntity
8
0
100
AcDbBlockEnd
0
BLOCK
5
FD
330
FC
100
AcDbEntity
8
0
100
AcDbBlockBegin
2
adapterholes
70
0
10
0
20
0
3
adapterholes
1

0
CIRCLE
5
270
100
AcDbEntity
8
plate
6
ByLayer
62
256
370
-1
100
AcDbCircle
10
-23
20
29.5
40
1.5
0
CIRCLE
5
271
100
AcDbEntity
8
plate
6
ByLayer
62
256
370
-1
100
AcDbCircle
10
23
20
29.5
40
1.5
0
CIRCLE
5
272
100
AcDbEntity
8
plate
6
ByLayer
62
256
370
-1
100
AcDbCircle
10
-23
20
-29.5
40
1.5
0
CIRCLE
5
273
100
AcDbEntity
8
plate
6
ByLayer
62
256
370
-1
100
AcDbCircle
10
23
20
-29.5
40
1.5
0
DIMENSION
5
274
100
AcDbEntity
8
dimension
6
ByLayer
62
256
370
-1
100
AcDbDimension
10
-23.9370425713
20
28.3286967858
30
0
11
-24.4641290177
21
30.6713032142
31
0
70
35
1
M3
71
5
72
0
3
Standard
53
0
210
0
220
0
230
1
100
AcDbDiametricDimension
15
-22.0629574287
25
30.6713032142
35
0
40
0
0
DIMENSION
5
275
100
AcDbEntity
8
dimension
6
ByLayer
62
256
370
-1
100
AcDbDimension
10
22.0629574287
20
28.3286967858
30
0
11
21.5358709823
21
30.6713032142
31
0
70
35
1
M3
71
5
72
0
3
Standard
53
0
210
0
220
0
230
1
100
AcDbDiametricDimension
15
23.9370425713
25
30.6713032142
35
0
40
0
0
DIMENSION
5
276
100
AcDbEntity
8
dimension
6
ByLayer
62
256
370
-1
100
AcDbDimension
10
-23.9370425713
20
-30.6713032142
30
0
11
-24.4641290177
21
-28.3286967858
31
0
70
35
1
M3
71
5
72
0
3
Standard
53
0
210
0
220
0
230
1
100
AcDbDiametricDimension
15
-22.0629574287
25
-28.3286967858
35
0
40
0
0
DIMENSION
5
277
100
AcDbEntity
8
dimension
6
ByLayer
62
256
370
-1
100
AcDbDimension
10
22.0629574287
20
-30.6713032142
30
0
11
21.5358709823
21
-28.3286967858
31
0
70
35
1
M3
71
5
72
0
3
Standard
53
0
210
0
220
0
230
1
100
AcDbDiametricDimension
15
23.9370425713
25
-28.3286967858
35
0
40
0
0
ENDBLK
5
FE
330
FC
100
AcDbEntity
8
0
100
AcDbBlockEnd
0
BLOCK
5
100
330
FF
100
AcDbEntity
8
0
100
AcDbBlockBegin
2
lcsoftholes
70
0
10
0
20
0
3
lcsoftholes
1

0
CIRCLE
5
278
100
AcDbEntity
8
plate
6
ByLayer
62
256
370
-1
100
AcDbCircle
10
-23.241
20
17.272
40
1.5
0
CIRCLE
5
279
100
AcDbEntity
8
plate
6
ByLayer
62
256
370
-1
100
AcDbCircle
10
23.241
20
17.272
40
1.5
0
CIRCLE
5
27A
100
AcDbEntity
8
plate
6
ByLayer
62
256
370
-1
100
AcDbCircle
10
-23.241
20
-17.272
40
1.5
0
CIRCLE
5
27B
100
AcDbEntity
8
plate
6
ByLayer
62
256
370
-1
100
AcDbCircle
10
23.241
20
-17.272
40
1.5
0
DIMENSION
5
27C
100
AcDbEntity
8
dimension
6
ByLayer
62
256
370
-1
100
AcDbDimension
10
-24.2374436703
20
-18.3932047146
30
0
11
-24.6425058932
21
-16.0264454122
31
0
70
35
1
M3
71
5
3
Standard
53
0
210
0
220
0
230
1
100
AcDbDiametricDimension
15
-22.2445563297
25
-16.1507952854
35
0
40
0
0
DIMENSION
5
27D
100
AcDbEntity
8
dimension
6
ByLayer
62
256
370
-1
100
AcDbDimension
10
22.2445563297
20
-18.3932047146
30
0
11
21.8394941068
21
-16.0264454122
31
0
70
35
1
M3
71
5
3
Standard
53
0
210
0
220
0
230
1
100
AcDbDiametricDimension
15
24.2374436703
25
-16.1507952854
35
0
40
0
0
DIMENSION
5
27E
100
AcDbEntity
8
dimension
6
ByLayer
62
256
370
-1
100
AcDbDimension
10
-24.2374436703
20
16.1507952854
30
0
11
-24.6425058932
21
18.5175545878
31
0
70
35
1
M3
71
5
3
Standard
53
0
210
0
220
0
230
1
100
AcDbDiametricDimension
15
-22.2445563297
25
18.3932047146
35
0
40
0
0
DIMENSION
5
27F
100
AcDbEntity
8
dimension
6
ByLayer
62
256
370
-1
100
AcDbDimension
10
22.2445563297
20
16.1507952854
30
0
11
21.8394941068
21
18.5175545878
31
0
70
35
1
M3
71
5
3
Standard
53
0
210
0
220
0
230
1
100
AcDbDiametricDimension
15
24.2374436703
25
18.3932047146
35
0
40
0
0
ENDBLK
5
101
330
FF
100
AcDbEntity
8
0
100
AcDbBlockEnd
0
BLOCK
5
103
330
102
100
AcDbEntity
8
0
100
AcDbBlockBegin
2
lcsoftmeas
70
0
10
0
20
0
3
lcsoftmeas
1

0
DIMENSION
5
280
100
AcDbEntity
8
dimension
6
ByLayer
62
256
370
-1
100
AcDbDimension
10
22.241
20
-14.272
30
0
11
0
21
-12.397
31
0
70
32
71
5
3
Standard
53
0
210
0
220
0
230
1
100
AcDbAlignedDimension
13
-23.241
23
-17.272
33
0
14
23.241
24
-17.272
34
0
100
AcDbRotatedDimension
0
DIMENSION
5
281
100
AcDbEntity
8
dimension
6
ByLayer
62
256
370
-1
100
AcDbDimension
10
20.241
20
-17.272
30
0
11
18.366
21
0
31
0
70
32
71
5
3
Standard
53
0
210
0
220
0
230
1
100
AcDbAlignedDimension
13
23.241
23
17.272
33
0
14
23.241
24
-17.272
34
0
50
90
100
AcDbRotatedDimension
0
ENDBLK
5
104
330
102
100
AcDbEntity
8
0
100
AcDbBlockEnd
0
ENDSEC
0
SECTION
2
ENTITIES
0
LINE
5
282
100
AcDbEntity
8
0
6
ByLayer
62
256
370
-1
100
AcDbLine
10
0
20
250
11
150
21
0
0
LINE
5
283
100
AcDbEntity
8
0
6
ByLayer
62
256
370
-1
100
AcDbLine
10
0
20
0
11
150
21
250
0
CIRCLE
5
284
100
AcDbEntity
8
box
6
ByLayer
62
256
370
-1
100
AcDbCircle
10
4.5
20
62.5
40
2
0
CIRCLE
5
285
100
AcDbEntity
8
box
6
ByLayer
62
256
370
-1
100
AcDbCircle
10
145.5
20
62.5
40
2
0
CIRCLE
5
286
100
AcDbEntity
8
0
6
ByLayer
62
256
370
-1
100
AcDbCircle
10
4.5
20
62.5
40
4.5
0
CIRCLE
5
287
100
AcDbEntity
8
0
6
ByLayer
62
256
370
-1
100
AcDbCircle
10
145.5
20
62.5
40
4.5
0
INSERT
5
288
100
AcDbEntity
8
ssr
6
ByLayer
62
256
370
-1
100
AcDbBlockReference
2
SSR
10
39
20
157
30
0
41
1
42
1
43
0
50
90
70
1
71
1
44
0
45
0
0
INSERT
5
289
100
AcDbEntity
8
ssr
6
ByLayer
62
256
370
-1
100
AcDbBlockReference
2
SSR
10
111
20
157
30
0
41
1
42
1
43
0
50
270
70
1
71
1
44
0
45
0
0
INSERT
5
28A
100
AcDbEntity
8
text
6
ByLayer
62
256
370
-1
100
AcDbBlockReference
2
SSRHOLES
10
15
20
157
30
0
41
1
42
1
43
0
50
270
70
1
71
1
44
0
45
0
0
INSERT
5
28B
100
AcDbEntity
8
text
6
ByLayer
62
256
370
-1
100
AcDbBlockReference
2
SSRHOLES
10
87
20
157
30
0
41
1
42
1
43
0
50
270
70
1
71
1
44
0
45
0
0
DIMENSION
5
28C
100
AcDbEntity
8
dimension
6
ByLayer
62
256
370
-1
100
AcDbDimension
2
*D1
10
143
20
194.7648
30
0
11
75
21
196.6398
31
0
70
32
71
5
72
0
3
Standard
53
0
210
0
220
0
230
1
100
AcDbAlignedDimension
13
6
23
188
33
0
14
144
24
188
34
0
100
AcDbRotatedDimension
0
LINE
5
28D
100
AcDbEntity
8
plate
6
ByLayer
62
256
370
-1
100
AcDbLine
10
7
20
190
11
0
21
190
0
LINE
5
28E
100
AcDbEntity
8
plate
6
ByLayer
62
256
370
-1
100
AcDbLine
10
-2.77555756156e-17
20
190
11
0
21
200
0
LINE
5
28F
100
AcDbEntity
8
plate
6
ByLayer
62
256
370
-1
100
AcDbLine
10
7
20
185
11
-2.77555756156e-17
21
185
0
LINE
5
290
100
AcDbEntity
8
plate
6
ByLayer
62
256
370
-1
100
AcDbLine
10
-9.15933995316e-16
20
185
11
0
21
175
0
CIRCLE
5
291
100
AcDbEntity
8
box
6
ByLayer
62
256
370
-1
100
AcDbCircle
10
6
20
187.5
40
2
0
CIRCLE
5
292
100
AcDbEntity
8
box
6
ByLayer
62
256
370
-1
100
AcDbCircle
10
144
20
187.5
40
2
0
LINE
5
293
100
AcDbEntity
8
plate
6
ByLayer
62
256
370
-1
100
AcDbLine
10
143
20
190
11
150
21
190
0
LINE
5
294
100
AcDbEntity
8
plate
6
ByLayer
62
256
370
-1
100
AcDbLine
10
150
20
190
11
150
21
200
0
LINE
5
295
100
AcDbEntity
8
plate
6
ByLayer
62
256
370
-1
100
AcDbLine
10
143
20
185
11
150
21
185
0
LINE
5
296
100
AcDbEntity
8
plate
6
ByLayer
62
256
370
-1
100
AcDbLine
10
150
20
185
11
150
21
175
0
ARC
5
297
100
AcDbEntity
8
plate
6
ByLayer
62
256
370
-1
100
AcDbCircle
10
7
20
187.5
40
2.5
100
AcDbArc
50
270
51
90
0
ARC
5
298
100
AcDbEntity
8
plate
6
ByLayer
62
256
370
-1
100
AcDbCircle
10
143
20
187.5
40
2.5
100
AcDbArc
50
90
51
270
0
LINE
5
299
100
AcDbEntity
8
plate
6
ByLayer
62
256
370
-1
100
AcDbLine
10
7
20
60
11
0
21
60
0
LINE
5
29A
100
AcDbEntity
8
plate
6
ByLayer
62
256
370
-1
100
AcDbLine
10
7
20
65
11
2.77555756156e-17
21
65
0
LINE
5
29B
100
AcDbEntity
8
plate
6
ByLayer
62
256
370
-1
100
AcDbLine
10
143
20
60
11
150
21
60
0
LINE
5
29C
100
AcDbEntity
8
plate
6
ByLayer
62
256
370
-1
100
AcDbLine
10
150
20
60
11
150
21
50
0
LINE
5
29D
100
AcDbEntity
8
plate
6
ByLayer
62
256
370
-1
100
AcDbLine
10
143
20
65
11
150
21
65
0
ARC
5
29E
100
AcDbEntity
8
plate
6
ByLayer
62
256
370
-1
100
AcDbCircle
10
7
20
62.5
40
2.5
100
AcDbArc
50
270
51
90
0
ARC
5
29F
100
AcDbEntity
8
plate
6
ByLayer
62
256
370
-1
100
AcDbCircle
10
143
20
62.5
40
2.5
100
AcDbArc
50
90
51
270
0
DIMENSION
5
2A0
100
AcDbEntity
8
dimension
6
ByLayer
62
256
370
-1
100
AcDbDimension
2
*D2
10
-20
20
184
30
0
11
-21.875
21
125
31
0
70
32
71
5
3
Standard
53
0
210
0
220
0
230
1
100
AcDbAlignedDimension
13
4.5
23
62.5
33
0
14
4.5
24
187.5
34
0
50
90
100
AcDbRotatedDimension
0
DIMENSION
5
2A1
100
AcDbEntity
8
dimension
6
ByLayer
62
256
370
-1
100
AcDbDimension
2
*D3
10
16
20
60
30
0
11
14.125
21
62.5
31
0
70
32
71
5
72
0
3
Standard
53
0
210
0
220
0
230
1
100
AcDbAlignedDimension
13
7
23
65
33
0
14
7
24
60
34
0
50
90
100
AcDbRotatedDimension
0
CIRCLE
5
2A2
100
AcDbEntity
8
box
6
ByLayer
62
256
370
-1
100
AcDbCircle
10
4
20
4.5
40
3
0
CIRCLE
5
2A3
100
AcDbEntity
8
box
6
ByLayer
62
256
370
-1
100
AcDbCircle
10
4
20
245.5
40
3
0
CIRCLE
5
2A4
100
AcDbEntity
8
box
6
ByLayer
62
256
370
-1
100
AcDbCircle
10
146
20
245.5
40
3
0
DIMENSION
5
2A5
100
AcDbEntity
8
0
6
ByLayer
62
256
370
-1
100
AcDbDimension
2
*D4
10
-20
20
243
30
0
11
-21.875
21
215
31
0
70
32
71
5
72
0
3
Standard
53
0
210
0
220
0
230
1
100
AcDbAlignedDimension
13
6
23
187.5
33
0
14
4
24
242.5
34
0
50
90
100
AcDbRotatedDimension
0
LINE
5
2A6
100
AcDbEntity
8
0
6
ByLayer
62
256
370
-1
100
AcDbLine
10
4.5
20
62.5
11
144
21
187.5
0
LINE
5
2A7
100
AcDbEntity
8
0
6
ByLayer
62
256
370
-1
100
AcDbLine
10
6
20
187.5
11
145.5
21
62.5
0
LINE
5
2A8
100
AcDbEntity
8
dashdot
6
ByLayer
62
256
370
-1
100
AcDbLine
10
60
20
125
11
90
21
125
0
LINE
5
2A9
100
AcDbEntity
8
0
6
ByLayer
62
256
370
-1
100
AcDbLine
10
4
20
4.5
11
146.5
21
4.5
0
LINE
5
2AA
100
AcDbEntity
8
box
6
ByLayer
62
256
370
-1
100
AcDbLine
10
151
20
250
11
-1
21
250
0
LINE
5
2AB
100
AcDbEntity
8
box
6
ByLayer
62
256
370
-1
100
AcDbLine
10
151
20
0
11
151
21
250
0
LINE
5
2AC
100
AcDbEntity
8
box
6
ByLayer
62
256
370
-1
100
AcDbLine
10
-1
20
0
11
151
21
0
0
LINE
5
2AD
100
AcDbEntity
8
box
6
ByLayer
62
256
370
-1
100
AcDbLine
10
-1
20
250
11
-1
21
0
0
INSERT
5
2AE
100
AcDbEntity
8
ssr
6
ByLayer
62
256
370
-1
100
AcDbBlockReference
2
SSR
10
39
20
220
30
0
41
1
42
1
43
0
50
90
70
1
71
1
44
0
45
0
0
INSERT
5
2AF
100
AcDbEntity
8
ssr
6
ByLayer
62
256
370
-1
100
AcDbBlockReference
2
SSR
10
111
20
220
30
0
41
1
42
1
43
0
50
270
70
1
71
1
44
0
45
0
0
INSERT
5
2B0
100
AcDbEntity
8
text
6
ByLayer
62
256
370
-1
100
AcDbBlockReference
2
SSRHOLES
10
15
20
220
30
0
41
1
42
1
43
0
50
270
70
1
71
1
44
0
45
0
0
INSERT
5
2B1
100
AcDbEntity
8
text
6
ByLayer
62
256
370
-1
100
AcDbBlockReference
2
SSRHOLES
10
87
20
220
30
0
41
1
42
1
43
0
50
270
70
1
71
1
44
0
45
0
0
LINE
5
2B2
100
AcDbEntity
8
box
6
ByLayer
62
256
370
-1
100
AcDbLine
10
92.5
20
20
11
92.5
21
0
0
LINE
5
2B3
100
AcDbEntity
8
box
6
ByLayer
62
256
370
-1
100
AcDbLine
10
57.5
20
20
11
92.5
21
20
0
LINE
5
2B4
100
AcDbEntity
8
box
6
ByLayer
62
256
370
-1
100
AcDbLine
10
57.5
20
0
11
57.5
21
20
0
DIMENSION
5
2B5
100
AcDbEntity
8
dimension
6
ByLayer
62
256
370
-1
100
AcDbDimension
2
*D5
10
160
20
160
30
0
11
158.125
21
188.5
31
0
70
32
71
5
3
Standard
53
0
210
0
220
0
230
1
100
AcDbAlignedDimension
13
135
23
220
33
0
14
135
24
157
34
0
50
90
100
AcDbRotatedDimension
0
LINE
5
2B6
100
AcDbEntity
8
0
6
ByLayer
62
256
370
-1
100
AcDbLine
10
69
20
20
11
69
21
35
0
LINE
5
2B7
100
AcDbEntity
8
0
6
ByLayer
62
256
370
-1
100
AcDbLine
10
81
20
20
11
81
21
35
0
LINE
5
2B8
100
AcDbEntity
8
plate
6
ByLayer
62
256
370
-1
100
AcDbLine
10
56
20
21
11
69
21
36
0
LINE
5
2B9
100
AcDbEntity
8
plate
6
ByLayer
62
256
370
-1
100
AcDbLine
10
69
20
36
11
81
21
36
0
LINE
5
2BA
100
AcDbEntity
8
plate
6
ByLayer
62
256
370
-1
100
AcDbLine
10
81
20
36
11
94
21
21
0
DIMENSION
5
2BB
100
AcDbEntity
8
dimension
6
ByLayer
62
256
370
-1
100
AcDbDimension
2
*D6
10
81
20
40
30
0
11
75
21
41.875
31
0
70
32
71
5
3
Standard
53
0
210
0
220
0
230
1
100
AcDbAlignedDimension
13
69
23
36
33
0
14
81
24
36
34
0
100
AcDbRotatedDimension
0
LINE
5
2BC
100
AcDbEntity
8
box
6
ByLayer
62
256
370
-1
100
AcDbLine
10
57.5
20
12
11
92.5
21
12
0
LINE
5
2BD
100
AcDbEntity
8
box
6
ByLayer
62
256
370
-1
100
AcDbLine
10
61
20
0
11
61
21
7
0
LINE
5
2BE
100
AcDbEntity
8
box
6
ByLayer
62
256
370
-1
100
AcDbLine
10
61
20
7
11
89
21
7
0
LINE
5
2BF
100
AcDbEntity
8
box
6
ByLayer
62
256
370
-1
100
AcDbLine
10
89
20
7
11
89
21
0
0
LINE
5
2C0
100
AcDbEntity
8
plate
6
ByLayer
62
256
370
-1
100
AcDbLine
10
94
20
21
11
94
21
2
0
LINE
5
2C1
100
AcDbEntity
8
plate
6
ByLayer
62
256
370
-1
100
AcDbLine
10
56
20
2
11
56
21
21
0
CIRCLE
5
2C2
100
AcDbEntity
8
box
6
ByLayer
62
256
370
-1
100
AcDbCircle
10
146
20
4.5
40
3
0
LINE
5
2C3
100
AcDbEntity
8
0
6
ByLayer
62
256
370
-1
100
AcDbLine
10
100
20
0
11
134.544
21
0
0
INSERT
5
2C4
100
AcDbEntity
8
0
6
ByLayer
62
256
370
-1
100
AcDbBlockReference
2
adapter
10
332
20
41
30
0
41
1
42
1
43
0
50
0
70
1
71
1
44
0
45
0
0
INSERT
5
2C5
100
AcDbEntity
8
0
6
ByLayer
62
256
370
-1
100
AcDbBlockReference
2
lcsoft
10
333
20
41.5
30
0
41
1
42
1
43
0
50
0
70
1
71
1
44
0
45
0
0
INSERT
5
2C6
100
AcDbEntity
8
0
6
ByLayer
62
256
370
-1
100
AcDbBlockReference
2
adapterholes
10
332
20
41.5
30
0
41
1
42
1
43
0
50
0
70
1
71
1
44
0
45
0
0
DIMENSION
5
2C7
100
AcDbEntity
8
dimension
6
ByLayer
62
256
370
-1
100
AcDbDimension
2
*D7
10
-10
20
185
30
0
11
-11.875
21
180
31
0
70
32
71
5
3
Standard
53
0
210
0
220
0
230
1
100
AcDbAlignedDimension
13
0
23
175
33
0
14
-9.15933995316e-16
24
185
34
0
50
90
100
AcDbRotatedDimension
0
DIMENSION
5
2C8
100
AcDbEntity
8
dimension
6
ByLayer
62
256
370
-1
100
AcDbDimension
2
*D8
10
-10
20
200
30
0
11
-11.875
21
195
31
0
70
32
71
5
3
Standard
53
0
210
0
220
0
230
1
100
AcDbAlignedDimension
13
0
23
190
33
0
14
0
24
200
34
0
50
90
100
AcDbRotatedDimension
0
DIMENSION
5
2C9
100
AcDbEntity
8
dimension
6
ByLayer
62
256
370
-1
100
AcDbDimension
2
*D9
10
16
20
185
30
0
11
14.125
21
187.5
31
0
70
32
71
5
3
Standard
53
0
210
0
220
0
230
1
100
AcDbAlignedDimension
13
7
23
190
33
0
14
7
24
185
34
0
50
90
100
AcDbRotatedDimension
0
LINE
5
2CA
100
AcDbEntity
8
0
6
ByLayer
62
256
370
-1
100
AcDbLine
10
443.241
20
22.728
11
443.241
21
57.272
0
CIRCLE
5
2CB
100
AcDbEntity
8
0
6
ByLayer
62
256
370
-1
100
AcDbCircle
10
443.241
20
57.272
40
3.5
0
CIRCLE
5
2CC
100
AcDbEntity
8
0
6
ByLayer
62
256
370
-1
100
AcDbCircle
10
443.241
20
22.728
40
3.5
0
LINE
5
2CD
100
AcDbEntity
8
0
6
ByLayer
62
256
370
-1
100
AcDbLine
10
396.759
20
22.728
11
443.241
21
22.728
0
CIRCLE
5
2CE
100
AcDbEntity
8
0
6
ByLayer
62
256
370
-1
100
AcDbCircle
10
396.759
20
57.272
40
3.5
0
CIRCLE
5
2CF
100
AcDbEntity
8
0
6
ByLayer
62
256
370
-1
100
AcDbCircle
10
396.759
20
22.728
40
3.5
0
LINE
5
2D0
100
AcDbEntity
8
0
6
ByLayer
62
256
370
-1
100
AcDbLine
10
396.759
20
22.728
11
396.759
21
57.272
0
LINE
5
2D1
100
AcDbEntity
8
0
6
ByLayer
62
256
370
-1
100
AcDbLine
10
396.759
20
57.272
11
443.241
21
57.272
0
LINE
5
2D2
100
AcDbEntity
8
0
6
ByLayer
62
256
370
-1
100
AcDbLine
10
396.759
20
57.272
11
443.241
21
22.728
0
CIRCLE
5
2D3
100
AcDbEntity
8
0
6
ByLayer
62
256
370
-1
100
AcDbCircle
10
396.759
20
57.272
40
1.5
0
LINE
5
2D4
100
AcDbEntity
8
0
6
ByLayer
62
256
370
-1
100
AcDbLine
10
396.759
20
22.728
11
443.241
21
57.272
0
CIRCLE
5
2D5
100
AcDbEntity
8
0
6
ByLayer
62
256
370
-1
100
AcDbCircle
10
443.241
20
57.272
40
1.5
0
CIRCLE
5
2D6
100
AcDbEntity
8
0
6
ByLayer
62
256
370
-1
100
AcDbCircle
10
396.759
20
22.728
40
1.5
0
CIRCLE
5
2D7
100
AcDbEntity
8
0
6
ByLayer
62
256
370
-1
100
AcDbCircle
10
443.241
20
22.728
40
1.5
0
INSERT
5
2D8
100
AcDbEntity
8
0
6
ByLayer
62
256
370
-1
100
AcDbBlockReference
2
lcsoftmeas
10
333
20
41.5
30
0
41
1
42
1
43
0
50
0
70
1
71
1
44
0
45
0
0
DIMENSION
5
2D9
100
AcDbEntity
8
dimension
6
ByLayer
62
256
370
-1
100
AcDbDimension
2
*D10
10
75
20
3
30
0
11
73.125
21
11.5
31
0
70
32
71
5
3
Standard
53
0
210
0
220
0
230
1
100
AcDbAlignedDimension
13
56
23
21
33
0
14
56
24
2
34
0
50
90
100
AcDbRotatedDimension
0
DIMENSION
5
2DA
100
AcDbEntity
8
dimension
6
ByLayer
62
256
370
-1
100
AcDbDimension
2
*D11
10
75
20
35
30
0
11
73.125
21
28.5
31
0
70
32
71
5
3
Standard
53
0
210
0
220
0
230
1
100
AcDbAlignedDimension
13
56
23
21
33
0
14
69
24
36
34
0
50
90
100
AcDbRotatedDimension
0
LINE
5
2DB
100
AcDbEntity
8
plate
6
ByLayer
62
256
370
-1
100
AcDbLine
10
9.15933995316e-16
20
65
11
0
21
77
0
DIMENSION
5
2DC
100
AcDbEntity
8
dimension
6
ByLayer
62
256
370
-1
100
AcDbDimension
2
*D12
10
-10
20
64.5
30
0
11
-11.875
21
71
31
0
70
32
71
5
72
0
3
Standard
53
0
210
0
220
0
230
1
100
AcDbAlignedDimension
13
0
23
77
33
0
14
2.77555756156e-17
24
65
34
0
50
90
100
AcDbRotatedDimension
0
DIMENSION
5
2DD
100
AcDbEntity
8
dimension
6
ByLayer
62
256
370
-1
100
AcDbDimension
2
*D13
10
-10
20
75
30
0
11
-11.875
21
126
31
0
70
32
71
5
3
Standard
53
0
210
0
220
0
230
1
100
AcDbAlignedDimension
13
0
23
175
33
0
14
-9.15933995316e-16
24
77
34
0
50
90
100
AcDbRotatedDimension
0
LINE
5
2DE
100
AcDbEntity
8
plate
6
ByLayer
62
256
370
-1
100
AcDbLine
10
150
20
65
11
150
21
77
0
LINE
5
2DF
100
AcDbEntity
8
plate
6
ByLayer
62
256
370
-1
100
AcDbLine
10
0
20
9
11
2.77555756156e-17
21
60
0
LINE
5
2E0
100
AcDbEntity
8
plate
6
ByLayer
62
256
370
-1
100
AcDbLine
10
150
20
9
11
150
21
60
0
LINE
5
2E1
100
AcDbEntity
8
plate
6
ByLayer
62
256
370
-1
100
AcDbLine
10
150
20
200
11
142
21
200
0
LINE
5
2E2
100
AcDbEntity
8
plate
6
ByLayer
62
256
370
-1
100
AcDbLine
10
0
20
200
11
8
21
200
0
LINE
5
2E3
100
AcDbEntity
8
plate
6
ByLayer
62
256
370
-1
100
AcDbLine
10
150
20
175
11
142
21
175
0
LINE
5
2E4
100
AcDbEntity
8
plate
6
ByLayer
62
256
370
-1
100
AcDbLine
10
150
20
77
11
142
21
77
0
LINE
5
2E5
100
AcDbEntity
8
plate
6
ByLayer
62
256
370
-1
100
AcDbLine
10
142
20
77
11
142
21
175
0
LINE
5
2E6
100
AcDbEntity
8
plate
6
ByLayer
62
256
370
-1
100
AcDbLine
10
0
20
175
11
8
21
175
0
LINE
5
2E7
100
AcDbEntity
8
plate
6
ByLayer
62
256
370
-1
100
AcDbLine
10
0
20
77
11
8
21
77
0
LINE
5
2E8
100
AcDbEntity
8
plate
6
ByLayer
62
256
370
-1
100
AcDbLine
10
8
20
77
11
8
21
175
0
DIMENSION
5
2E9
100
AcDbEntity
8
dimension
6
ByLayer
62
256
370
-1
100
AcDbDimension
2
*D14
10
143
20
225
30
0
11
138.5
21
226.875
31
0
70
32
71
5
72
0
3
Standard
53
0
210
0
220
0
230
1
100
AcDbAlignedDimension
13
135
23
220
33
0
14
142
24
220
34
0
100
AcDbRotatedDimension
0
DIMENSION
5
2EA
100
AcDbEntity
8
dimension
6
ByLayer
62
256
370
-1
100
AcDbDimension
2
*D15
10
7
20
225
30
0
11
11.5
21
226.875
31
0
70
32
71
5
72
0
3
Standard
53
0
210
0
220
0
230
1
100
AcDbAlignedDimension
13
15
23
220
33
0
14
8
24
220
34
0
100
AcDbRotatedDimension
0
DIMENSION
5
2EB
100
AcDbEntity
8
dimension
6
ByLayer
62
256
370
-1
100
AcDbDimension
2
*D16
10
8
20
210
30
0
11
4
21
211.875
31
0
70
32
71
5
72
0
3
Standard
53
0
210
0
220
0
230
1
100
AcDbAlignedDimension
13
0
23
200
33
0
14
8
24
200
34
0
100
AcDbRotatedDimension
0
DIMENSION
5
2EC
100
AcDbEntity
8
0
6
ByLayer
62
256
370
-1
100
AcDbDimension
2
*D17
10
-10
20
10
30
0
11
-11.875
21
35
31
0
70
32
71
5
3
Standard
53
0
210
0
220
0
230
1
100
AcDbAlignedDimension
13
4.5
23
62.5
33
0
14
4
24
7.5
34
0
50
90
100
AcDbRotatedDimension
0
LINE
5
2ED
100
AcDbEntity
8
plate
6
ByLayer
62
256
370
-1
100
AcDbLine
10
9
20
2
11
56
21
2
0
DIMENSION
5
2EE
100
AcDbEntity
8
dimension
6
ByLayer
62
256
370
-1
100
AcDbDimension
2
*D18
10
7
20
-13
30
0
11
4.5
21
-11.125
31
0
70
32
71
5
3
Standard
53
0
210
0
220
0
230
1
100
AcDbAlignedDimension
13
2.77555756156e-17
23
7.5
33
0
14
9
24
2
34
0
100
AcDbRotatedDimension
0
LINE
5
2EF
100
AcDbEntity
8
plate
6
ByLayer
62
256
370
-1
100
AcDbLine
10
9
20
9
11
0
21
9
0
LINE
5
2F0
100
AcDbEntity
8
plate
6
ByLayer
62
256
370
-1
100
AcDbLine
10
9
20
2
11
9
21
9
0
LINE
5
2F1
100
AcDbEntity
8
plate
6
ByLayer
62
256
370
-1
100
AcDbLine
10
94
20
2
11
141
21
2
0
LINE
5
2F2
100
AcDbEntity
8
plate
6
ByLayer
62
256
370
-1
100
AcDbLine
10
141
20
9
11
150
21
9
0
LINE
5
2F3
100
AcDbEntity
8
plate
6
ByLayer
62
256
370
-1
100
AcDbLine
10
141
20
9
11
141
21
2
0
DIMENSION
5
2F4
100
AcDbEntity
8
dimension
6
ByLayer
62
256
370
-1
100
AcDbDimension
2
*D19
10
150
20
-13
30
0
11
145.5
21
-11.125
31
0
70
32
71
5
3
Standard
53
0
210
0
220
0
230
1
100
AcDbAlignedDimension
13
141
23
2
33
0
14
150
24
7.5
34
0
100
AcDbRotatedDimension
0
DIMENSION
5
2F5
100
AcDbEntity
8
dimension
6
ByLayer
62
256
370
-1
100
AcDbDimension
2
*D20
10
155
20
2
30
0
11
153.125
21
11.1
31
0
70
32
71
5
3
Standard
53
0
210
0
220
0
230
1
100
AcDbAlignedDimension
13
146.2
23
20.2
33
0
14
141
24
2
34
0
50
90
100
AcDbRotatedDimension
0
DIMENSION
5
2F6
100
AcDbEntity
8
dimension
6
ByLayer
62
256
370
-1
100
AcDbDimension
2
*D21
10
143
20
-13
30
0
11
75
21
-11.125
31
0
70
32
71
5
72
0
3
Standard
53
0
210
0
220
0
230
1
100
AcDbAlignedDimension
13
9
23
2
33
0
14
141
24
2
34
0
100
AcDbRotatedDimension
0
DIMENSION
5
2F7
100
AcDbEntity
8
dimension
6
ByLayer
62
256
370
-1
100
AcDbDimension
2
*D22
10
150
20
-20
30
0
11
75
21
-18.125
31
0
70
32
71
5
3
Standard
53
0
210
0
220
0
230
1
100
AcDbAlignedDimension
13
0
23
9
33
0
14
150
24
9
34
0
100
AcDbRotatedDimension
0
INSERT
5
2F8
100
AcDbEntity
8
dimension
6
ByLayer
62
256
370
-1
100
AcDbBlockReference
2
lcsoftholes
10
28
20
37.5
30
0
41
-1
42
1
43
0
50
0
70
1
71
1
44
0
45
0
0
INSERT
5
2F9
100
AcDbEntity
8
dimension
6
ByLayer
62
256
370
-1
100
AcDbBlockReference
2
lcsoftholes
10
122
20
37.5
30
0
41
1
42
1
43
0
50
0
70
1
71
1
44
0
45
0
0
INSERT
5
2FA
100
AcDbEntity
8
0
6
ByLayer
62
256
370
-1
100
AcDbBlockReference
2
lcsoftmeas
10
121.959
20
37.472
30
0
41
1
42
1
43
0
50
0
70
1
71
1
44
0
45
0
0
DIMENSION
5
2FB
100
AcDbEntity
8
dimension
6
ByLayer
62
256
370
-1
100
AcDbDimension
2
*D23
10
148.9
20
29
30
0
11
147.6
21
30.875
31
0
70
32
71
5
3
Standard
53
0
210
0
220
0
230
1
100
AcDbAlignedDimension
13
145.2
23
20.2
33
0
14
150
24
20
34
0
100
AcDbRotatedDimension
0
LEADER
5
2FC
100
AcDbEntity
8
0
6
ByLayer
62
256
370
-1
100
AcDbLeader
3
Standard
71
1
72
0
73
3
74
0
75
0
40
1
41
10
76
2
76
2
10
152
20
7
30
0
10
172
20
7
30
0
0
TEXT
5
2FD
100
AcDbEntity
8
0
6
ByLayer
62
256
370
-1
100
AcDbText
10
158
20
8
30
0
40
3
1
smeta plocica
50
0
41
1
51
0
7
standard
71
0
210
0
220
0
230
1
100
AcDbText
0
INSERT
5
2FE
100
AcDbEntity
8
ssr
6
ByLayer
62
256
370
-1
100
AcDbBlockReference
2
SSR
10
39
20
100
30
0
41
1
42
1
43
0
50
90
70
1
71
1
44
0
45
0
0
INSERT
5
2FF
100
AcDbEntity
8
ssr
6
ByLayer
62
256
370
-1
100
AcDbBlockReference
2
SSR
10
111
20
100
30
0
41
1
42
1
43
0
50
270
70
1
71
1
44
0
45
0
0
INSERT
5
300
100
AcDbEntity
8
text
6
ByLayer
62
256
370
-1
100
AcDbBlockReference
2
SSRHOLES
10
15
20
100
30
0
41
1
42
1
43
0
50
270
70
1
71
1
44
0
45
0
0
INSERT
5
301
100
AcDbEntity
8
text
6
ByLayer
62
256
370
-1
100
AcDbBlockReference
2
SSRHOLES
10
87
20
100
30
0
41
1
42
1
43
0
50
270
70
1
71
1
44
0
45
0
0
DIMENSION
5
302
100
AcDbEntity
8
dimension
6
ByLayer
62
256
370
-1
100
AcDbDimension
2
*D25
10
160
20
99
30
0
11
158.125
21
128.5
31
0
70
32
71
5
3
Standard
53
0
210
0
220
0
230
1
100
AcDbAlignedDimension
13
135
23
157
33
0
14
135
24
100
34
0
50
90
100
AcDbRotatedDimension
0
LINE
5
303
100
AcDbEntity
8
plate
6
ByLayer
62
256
370
-1
100
AcDbLine
10
142
20
200
11
142
21
244
0
LINE
5
304
100
AcDbEntity
8
plate
6
ByLayer
62
256
370
-1
100
AcDbLine
10
8
20
200
11
8
21
244
0
LINE
5
305
100
AcDbEntity
8
plate
6
ByLayer
62
256
370
-1
100
AcDbLine
10
8
20
244
11
142
21
244
0
DIMENSION
5
306
100
AcDbEntity
8
dimension
6
ByLayer
62
256
370
-1
100
AcDbDimension
2
*D26
10
-10
20
248
30
0
11
-11.875
21
222
31
0
70
32
71
5
3
Standard
53
0
210
0
220
0
230
1
100
AcDbAlignedDimension
13
0
23
200
33
0
14
8
24
244
34
0
50
90
100
AcDbRotatedDimension
0
DIMENSION
5
307
100
AcDbEntity
8
dimension
6
ByLayer
62
256
370
-1
100
AcDbDimension
2
*D27
10
160
20
248
30
0
11
158.125
21
232
31
0
70
32
71
5
3
Standard
53
0
210
0
220
0
230
1
100
AcDbAlignedDimension
13
135
23
220
33
0
14
142
24
244
34
0
50
90
100
AcDbRotatedDimension
0
DIMENSION
5
308
100
AcDbEntity
8
dimension
6
ByLayer
62
256
370
-1
100
AcDbDimension
2
*D28
10
170
20
157
30
0
11
168.125
21
200.5
31
0
70
32
71
5
3
Standard
53
0
210
0
220
0
230
1
100
AcDbAlignedDimension
13
142
23
244
33
0
14
135
24
157
34
0
50
90
100
AcDbRotatedDimension
0
DIMENSION
5
309
100
AcDbEntity
8
dimension
6
ByLayer
62
256
370
-1
100
AcDbDimension
2
*D29
10
180
20
99
30
0
11
178.125
21
172
31
0
70
32
71
5
3
Standard
53
0
210
0
220
0
230
1
100
AcDbAlignedDimension
13
142
23
244
33
0
14
135
24
100
34
0
50
90
100
AcDbRotatedDimension
0
DIMENSION
5
30A
100
AcDbEntity
8
dimension
6
ByLayer
62
256
370
-1
100
AcDbDimension
2
*D30
10
94
20
-6
30
0
11
75
21
-4.125
31
0
70
32
71
5
3
Standard
53
0
210
0
220
0
230
1
100
AcDbAlignedDimension
13
56
23
2
33
0
14
94
24
2
34
0
100
AcDbRotatedDimension
0
DIMENSION
5
30B
100
AcDbEntity
8
dimension
6
ByLayer
62
256
370
-1
100
AcDbDimension
2
*D31
10
140
20
-6
30
0
11
117.5
21
-4.125
31
0
70
32
71
5
72
0
3
Standard
53
0
210
0
220
0
230
1
100
AcDbAlignedDimension
13
94
23
2
33
0
14
141
24
2
34
0
100
AcDbRotatedDimension
0
DIMENSION
5
30C
100
AcDbEntity
8
dimension
6
ByLayer
62
256
370
-1
100
AcDbDimension
2
*D32
10
56
20
-6
30
0
11
32.5
21
-4.125
31
0
70
32
71
5
72
0
3
Standard
53
0
210
0
220
0
230
1
100
AcDbAlignedDimension
13
9
23
2
33
0
14
56
24
2
34
0
100
AcDbRotatedDimension
0
INSERT
5
30D
100
AcDbEntity
8
pcb
6
ByLayer
62
256
370
-1
100
AcDbBlockReference
2
adapterholes
10
29
20
43.5
30
0
41
-1
42
1
43
0
50
0
70
1
71
1
44
0
45
0
0
DIMENSION
5
30E
100
AcDbEntity
8
dimension
6
ByLayer
62
256
370
-1
100
AcDbDimension
2
*D33
10
51
20
30
30
0
11
29
21
31.875
31
0
70
32
71
5
3
Standard
53
0
210
0
220
0
230
1
100
AcDbAlignedDimension
13
6
23
14
33
0
14
52
24
14
34
0
100
AcDbRotatedDimension
0
DIMENSION
5
30F
100
AcDbEntity
8
dimension
6
ByLayer
62
256
370
-1
100
AcDbDimension
2
*D34
10
41
20
12
30
0
11
39.125
21
43.5
31
0
70
32
71
5
3
Standard
53
0
210
0
220
0
230
1
100
AcDbAlignedDimension
13
52
23
73
33
0
14
52
24
14
34
0
50
90
100
AcDbRotatedDimension
0
DIMENSION
5
310
100
AcDbEntity
8
dimension
6
ByLayer
62
256
370
-1
100
AcDbDimension
2
*D35
10
1
20
30
30
0
11
3
21
31.875
31
0
70
32
71
5
3
Standard
53
0
210
0
220
0
230
1
100
AcDbAlignedDimension
13
6
23
14
33
0
14
0
24
14
34
0
100
AcDbRotatedDimension
0
INSERT
5
311
100
AcDbEntity
8
0
6
ByLayer
62
256
370
-1
100
AcDbBlockReference
2
adapter
10
121
20
43
30
0
41
1
42
1
43
0
50
0
70
1
71
1
44
0
45
0
0
INSERT
5
312
100
AcDbEntity
8
0
6
ByLayer
62
256
370
-1
100
AcDbBlockReference
2
lcsoft
10
122
20
43.5
30
0
41
1
42
1
43
0
50
0
70
1
71
1
44
0
45
0
0
INSERT
5
313
100
AcDbEntity
8
pcb
6
ByLayer
62
256
370
-1
100
AcDbBlockReference
2
adapterholes
10
121
20
43.5
30
0
41
1
42
1
43
0
50
0
70
1
71
1
44
0
45
0
0
CIRCLE
5
314
100
AcDbEntity
8
0
6
ByLayer
62
256
370
-1
100
AcDbCircle
10
52
20
73
40
3.5
0
CIRCLE
5
315
100
AcDbEntity
8
0
6
ByLayer
62
256
370
-1
100
AcDbCircle
10
6
20
73
40
3.5
0
CIRCLE
5
316
100
AcDbEntity
8
0
6
ByLayer
62
256
370
-1
100
AcDbCircle
10
52
20
14
40
3.5
0
DIMENSION
5
317
100
AcDbEntity
8
dimension
6
ByLayer
62
256
370
-1
100
AcDbDimension
2
*D36
10
150
20
82
30
0
11
147
21
83.875
31
0
70
32
71
5
72
0
3
Standard
53
0
210
0
220
0
230
1
100
AcDbAlignedDimension
13
144
23
73
33
0
14
150
24
77
34
0
100
AcDbRotatedDimension
0
DIMENSION
5
318
100
AcDbEntity
8
dimension
6
ByLayer
62
256
370
-1
100
AcDbDimension
2
*D37
10
6.66133814775e-16
20
83
30
0
11
3
21
84.875
31
0
70
32
71
5
3
Standard
53
0
210
0
220
0
230
1
100
AcDbAlignedDimension
13
6
23
73
33
0
14
0
24
77
34
0
100
AcDbRotatedDimension
0
DIMENSION
5
319
100
AcDbEntity
8
dimension
6
ByLayer
62
256
370
-1
100
AcDbDimension
2
*D38
10
312
20
51
30
0
11
310.125
21
25.5
31
0
70
32
71
5
3
Standard
53
0
210
0
220
0
230
1
100
AcDbAlignedDimension
13
322
23
0
33
0
14
322
24
51
34
0
50
90
100
AcDbRotatedDimension
0
DIMENSION
5
31A
100
AcDbEntity
8
dimension
6
ByLayer
62
256
370
-1
100
AcDbDimension
2
*D39
10
318
20
7
30
0
11
316.125
21
3.5
31
0
70
32
71
5
3
Standard
53
0
210
0
220
0
230
1
100
AcDbAlignedDimension
13
323
23
0
33
0
14
323
24
7
34
0
50
90
100
AcDbRotatedDimension
0
DIMENSION
5
31B
100
AcDbEntity
8
dimension
6
ByLayer
62
256
370
-1
100
AcDbDimension
2
*D40
10
306
20
58
30
0
11
304.125
21
29
31
0
70
32
71
5
3
Standard
53
0
210
0
220
0
230
1
100
AcDbAlignedDimension
13
323
23
0
33
0
14
323
24
58
34
0
50
90
100
AcDbRotatedDimension
0
DIMENSION
5
31C
100
AcDbEntity
8
dimension
6
ByLayer
62
256
370
-1
100
AcDbDimension
2
*D41
10
337
20
60
30
0
11
335.125
21
31
31
0
70
32
71
5
3
Standard
53
0
210
0
220
0
230
1
100
AcDbAlignedDimension
13
300
23
0
33
0
14
300
24
62
34
0
50
90
100
AcDbRotatedDimension
0
DIMENSION
5
31D
100
AcDbEntity
8
dimension
6
ByLayer
62
256
370
-1
100
AcDbDimension
2
*D42
10
344
20
15
30
0
11
323
21
16.875
31
0
70
32
71
5
3
Standard
53
0
210
0
220
0
230
1
100
AcDbAlignedDimension
13
300
23
0
33
0
14
346
24
0
34
0
100
AcDbRotatedDimension
0
LINE
5
31E
100
AcDbEntity
8
dashdot
6
ByLayer
62
256
370
-1
100
AcDbLine
10
323
20
2
11
323
21
60
0
INSERT
5
31F
100
AcDbEntity
8
ssr
6
ByLayer
62
256
370
-1
100
AcDbBlockReference
2
SSR
10
323
20
31
30
0
41
1
42
1
43
0
50
360
70
1
71
1
44
0
45
0
0
INSERT
5
320
100
AcDbEntity
8
text
6
ByLayer
62
256
370
-1
100
AcDbBlockReference
2
SSRHOLES
10
323
20
7
30
0
41
1
42
1
43
0
50
360
70
1
71
1
44
0
45
0
0
LINE
5
321
100
AcDbEntity
8
dashdot
6
ByLayer
62
256
370
-1
100
AcDbLine
10
75
20
46
11
75
21
250
0
DIMENSION
5
322
100
AcDbEntity
8
dimension
6
ByLayer
62
256
370
-1
100
AcDbDimension
2
*D43
10
98.8
20
29
30
0
11
122
21
30.875
31
0
70
32
71
5
3
Standard
53
0
210
0
220
0
230
1
100
AcDbAlignedDimension
13
145.2
23
20.2
33
0
14
98.8
24
20.3
34
0
100
AcDbRotatedDimension
0
DIMENSION
5
323
100
AcDbEntity
8
dimension
6
ByLayer
62
256
370
-1
100
AcDbDimension
2
*D44
10
110
20
54.8
30
0
11
108.125
21
37.5
31
0
70
32
71
5
3
Standard
53
0
210
0
220
0
230
1
100
AcDbAlignedDimension
13
98.8
23
20.2
33
0
14
98.8
24
54.8
34
0
50
90
100
AcDbRotatedDimension
0
DIMENSION
5
324
100
AcDbEntity
8
dimension
6
ByLayer
62
256
370
-1
100
AcDbDimension
2
*D45
10
115
20
73
30
0
11
113.125
21
43.5
31
0
70
32
71
5
3
Standard
53
0
210
0
220
0
230
1
100
AcDbAlignedDimension
13
98
23
14
33
0
14
98
24
73
34
0
50
90
100
AcDbRotatedDimension
0
DIMENSION
5
325
100
AcDbEntity
8
dimension
6
ByLayer
62
256
370
-1
100
AcDbDimension
2
*D46
10
150
20
5
30
0
11
147
21
6.875
31
0
70
32
71
5
3
Standard
53
0
210
0
220
0
230
1
100
AcDbAlignedDimension
13
144
23
14
33
0
14
150
24
14
34
0
100
AcDbRotatedDimension
0
DIMENSION
5
326
100
AcDbEntity
8
dimension
6
ByLayer
62
256
370
-1
100
AcDbDimension
2
*D47
10
144
20
5
30
0
11
121
21
6.875
31
0
70
32
71
5
3
Standard
53
0
210
0
220
0
230
1
100
AcDbAlignedDimension
13
98
23
14
33
0
14
144
24
14
34
0
100
AcDbRotatedDimension
0
DIMENSION
5
327
100
AcDbEntity
8
dimension
6
ByLayer
62
256
370
-1
100
AcDbDimension
2
*D48
10
136
20
2
30
0
11
134.125
21
8
31
0
70
32
71
5
3
Standard
53
0
210
0
220
0
230
1
100
AcDbAlignedDimension
13
144
23
14
33
0
14
141
24
2
34
0
50
90
100
AcDbRotatedDimension
0
DIMENSION
5
328
100
AcDbEntity
8
dimension
6
ByLayer
62
256
370
-1
100
AcDbDimension
2
*D49
10
17
20
4
30
0
11
15.125
21
8
31
0
70
32
71
5
3
Standard
53
0
210
0
220
0
230
1
100
AcDbAlignedDimension
13
6
23
14
33
0
14
9
24
2
34
0
50
90
100
AcDbRotatedDimension
0
DIMENSION
5
329
100
AcDbEntity
8
dimension
6
ByLayer
62
256
370
-1
100
AcDbDimension
2
*D50
10
145
20
68
30
0
11
80
21
70
31
0
70
32
71
5
3
Standard
53
0
210
0
220
0
230
1
100
AcDbAlignedDimension
13
9.5
23
62.5
33
0
14
140.5
24
62.5
34
0
100
AcDbRotatedDimension
0
DIMENSION
5
32A
100
AcDbEntity
8
dimension
6
ByLayer
62
256
370
-1
100
AcDbDimension
2
*D51
10
-20
20
187.5
30
0
11
-21.875
21
215.75
31
0
70
32
71
5
3
Standard
53
0
210
0
220
0
230
1
100
AcDbAlignedDimension
13
8
23
244
33
0
14
6
24
187.5
34
0
50
90
100
AcDbRotatedDimension
0
DIMENSION
5
32B
100
AcDbEntity
8
dimension
6
ByLayer
62
256
370
-1
100
AcDbDimension
2
*D52
10
-5
20
2
30
0
11
-6.875
21
5.5
31
0
70
32
71
5
3
Standard
53
0
210
0
220
0
230
1
100
AcDbAlignedDimension
13
0
23
9
33
0
14
9
24
2
34
0
50
90
100
AcDbRotatedDimension
0
DIMENSION
5
32C
100
AcDbEntity
8
dimension
6
ByLayer
62
256
370
-1
100
AcDbDimension
2
*D53
10
-20
20
2
30
0
11
-21.875
21
32.25
31
0
70
32
71
5
3
Standard
53
0
210
0
220
0
230
1
100
AcDbAlignedDimension
13
4.8
23
62.5
33
0
14
9
24
2
34
0
50
90
100
AcDbRotatedDimension
0
LINE
5
32D
100
AcDbEntity
8
dashdot
6
ByLayer
62
256
370
-1
100
AcDbLine
10
6
20
73
11
52
21
73
0
LINE
5
32E
100
AcDbEntity
8
dashdot
6
ByLayer
62
256
370
-1
100
AcDbLine
10
52
20
73
11
52
21
14
0
LINE
5
32F
100
AcDbEntity
8
dashdot
6
ByLayer
62
256
370
-1
100
AcDbLine
10
52
20
14
11
6
21
14
0
LINE
5
330
100
AcDbEntity
8
dashdot
6
ByLayer
62
256
370
-1
100
AcDbLine
10
6
20
14
11
6
21
73
0
LINE
5
331
100
AcDbEntity
8
dashdot
6
ByLayer
62
256
370
-1
100
AcDbLine
10
4.7
20
54.8
11
51.2
21
54.8
0
LINE
5
332
100
AcDbEntity
8
dashdot
6
ByLayer
62
256
370
-1
100
AcDbLine
10
51.2
20
54.8
11
51.2
21
20.2
0
LINE
5
333
100
AcDbEntity
8
dashdot
6
ByLayer
62
256
370
-1
100
AcDbLine
10
51.2
20
20.2
11
4.78388432523
21
20.2
0
LINE
5
334
100
AcDbEntity
8
dashdot
6
ByLayer
62
256
370
-1
100
AcDbLine
10
4.78388432523
20
20.2
11
4.73411567477
21
54.8
0
LINE
5
335
100
AcDbEntity
8
dashdot
6
ByLayer
62
256
370
-1
100
AcDbLine
10
98.8
20
20.2
11
145.2
21
20.3
0
LINE
5
336
100
AcDbEntity
8
dashdot
6
ByLayer
62
256
370
-1
100
AcDbLine
10
145.2
20
20.3
11
145.2
21
54.8
0
LINE
5
337
100
AcDbEntity
8
dashdot
6
ByLayer
62
256
370
-1
100
AcDbLine
10
145.2
20
54.8
11
98.8
21
54.8
0
LINE
5
338
100
AcDbEntity
8
dashdot
6
ByLayer
62
256
370
-1
100
AcDbLine
10
98.8
20
54.8
11
98.8
21
20.2
0
LINE
5
339
100
AcDbEntity
8
dashdot
6
ByLayer
62
256
370
-1
100
AcDbLine
10
98
20
14
11
144
21
14
0
LINE
5
33A
100
AcDbEntity
8
dashdot
6
ByLayer
62
256
370
-1
100
AcDbLine
10
144
20
14
11
144
21
73
0
LINE
5
33B
100
AcDbEntity
8
dashdot
6
ByLayer
62
256
370
-1
100
AcDbLine
10
144
20
73
11
98
21
73
0
LINE
5
33C
100
AcDbEntity
8
dashdot
6
ByLayer
62
256
370
-1
100
AcDbLine
10
98
20
73
11
98
21
14
0
TEXT
5
33D
100
AcDbEntity
8
text
6
ByLayer
62
256
370
-1
100
AcDbText
10
40
20
-40
30
0
40
5
1
SSR v09 AlS1Mn 4mm
50
0
41
1
51
0
7
iso
71
0
210
0
220
0
230
1
100
AcDbText
0
DIMENSION
5
33E
100
AcDbEntity
8
dimension
6
ByLayer
62
256
370
-1
100
AcDbDimension
2
*D54
10
-30
20
0
30
0
11
-31.875
21
123
31
0
70
32
71
5
3
Standard
53
0
210
0
220
0
230
1
100
AcDbAlignedDimension
13
8
23
244
33
0
14
9
24
2
34
0
50
90
100
AcDbRotatedDimension
0
ENDSEC
0
SECTION
2
OBJECTS
0
DICTIONARY
5
C
330
0
100
AcDbDictionary
281
1
3
ACAD_GROUP
350
D
0
DICTIONARY
5
D
330
C
100
AcDbDictionary
281
1
0
ENDSEC
0
EOF
